SplineFontDB: 3.2
FontName: Serarif_Standard_Regular
FullName: Serarif Standard
FamilyName: Serarif
Weight: Regular
Copyright: Copyright (c) 2021, nahkd123\nLicensed under SIL Open Font License
UComments: "Created with Inkscape (https://inkscape.org/) and FontForge (http://fontforge.org)"
FontLog: "FONTLOG for the Serarif fonts+AAoACgAA-This file provides detailed information on the Serarif font.+AAoA-This information should be distributed along with the GlobalFontFamily fonts+AAoA-and any derivative works.+AAoACgAA-Basic Font Information+AAoACgAA*insert description here*+AAoACgAA-ChangeLog+AAoA-10 May 2021 (nahkd123) Serarif Standard version 1.000+AAoA-- Initial Release"
Version: 1.000
DefaultBaseFilename: Serarif Standard
ItalicAngle: 0
UnderlinePosition: -100
UnderlineWidth: 50
Ascent: 680
Descent: 320
InvalidEm: 0
LayerCount: 2
Layer: 0 0 "Back" 1
Layer: 1 0 "Fore" 0
XUID: [1021 954 989402786 2550]
StyleMap: 0x0000
FSType: 0
OS2Version: 0
OS2_WeightWidthSlopeOnly: 0
OS2_UseTypoMetrics: 1
CreationTime: 1620610242
ModificationTime: 1620633368
OS2TypoAscent: 0
OS2TypoAOffset: 1
OS2TypoDescent: 0
OS2TypoDOffset: 1
OS2TypoLinegap: 90
OS2WinAscent: 0
OS2WinAOffset: 1
OS2WinDescent: 0
OS2WinDOffset: 1
HheadAscent: 0
HheadAOffset: 1
HheadDescent: 0
HheadDOffset: 1
Lookup: 4 0 0 "Ligatures" { "Ligatures-1"  } ['liga' ('DFLT' <'dflt' > 'latn' <'dflt' > ) ]
Lookup: 258 0 0 "'kern' Horizontal Kerning in Latin lookup 1" { "'kern' Horizontal Kerning in Latin lookup 1-1" [75,7,2] } ['kern' ('DFLT' <'dflt' > 'latn' <'dflt' > ) ]
MarkAttachClasses: 1
DEI: 91125
Encoding: Custom
UnicodeInterp: none
NameList: AGL For New Fonts
DisplaySize: -96
AntiAlias: 1
FitToEm: 0
WidthSeparation: 75
WinInfo: 104 13 5
BeginPrivate: 0
EndPrivate
TeXData: 1 0 0 288358 144179 96119 377487 1048576 96119 783286 444596 497025 792723 393216 433062 380633 303038 157286 324010 404750 52429 2506097 1059062 262144
BeginChars: 258 103

StartChar: A
Encoding: 65 65 0
Width: 702
Flags: HW
LayerCount: 2
Fore
SplineSet
301.375 640 m 1
 394.625 640 l 1
 678 0 l 1
 588 0 l 1
 462.6015625 280 l 1
 233.3984375 280 l 1
 108 0 l 1
 23 0 l 1
 116.444335938 210.620117188 225.193359375 426.630859375 301.375 640 c 1
348 535.888671875 m 1
 269.2265625 360 l 1
 426.7734375 360 l 1
 348 535.888671875 l 1
EndSplineSet
Validated: 524289
EndChar

StartChar: B
Encoding: 66 66 1
Width: 488
Flags: HW
LayerCount: 2
Fore
SplineSet
36 640 m 1
 116 640 l 1
 276 640 l 1
 276 640 456 640 456 460 c 0
 456 386.407226562 429.251953125 342.913085938 397.630859375 317.1953125 c 1
 429.92578125 290.911132812 456 248.499023438 456 180 c 0
 456 0 296 0 296 0 c 1
 116 0 l 1
 36 0 l 1
 36 640 l 1
116 560 m 1
 116 360 l 1
 276 360 l 1
 296 360 l 1
 296 360 376 370 376 460 c 0
 376 550 296 560 296 560 c 1
 116 560 l 1
116 280 m 1
 116 80 l 1
 296 80 l 1
 296 80 376 90 376 180 c 0
 376 270 296 280 296 280 c 1
 116 280 l 1
EndSplineSet
Validated: 524289
EndChar

StartChar: C
Encoding: 67 67 2
Width: 552
Flags: HW
LayerCount: 2
Fore
SplineSet
309 640 m 0
 396.098632812 640 473.87109375 594.658203125 525.2421875 523.28515625 c 1
 468.08203125 465.45703125 l 1
 431.533203125 523.017578125 373.901367188 560 309 560 c 0
 198.6171875 560 109 452.459960938 109 320 c 0
 109 187.540039062 198.6171875 80 309 80 c 0
 373.901367188 80 431.533203125 116.982421875 468.08203125 174.54296875 c 1
 525.2421875 116.71484375 l 1
 473.87109375 45.341796875 396.098632812 0 309 0 c 0
 154.463867188 0 29 143.387695312 29 320 c 0
 29 496.612304688 154.463867188 640 309 640 c 0
EndSplineSet
Validated: 524289
EndChar

StartChar: P
Encoding: 80 80 3
Width: 487
Flags: HW
LayerCount: 2
Fore
SplineSet
36 640 m 1
 116 640 l 1
 276 640 l 1
 276 640 456 640 456 460 c 0
 456 280 296 280 296 280 c 1
 116 280 l 1
 116 0 l 1
 36 0 l 1
 36 640 l 1
116 560 m 1
 116 360 l 1
 296 360 l 1
 296 360 376 370 376 460 c 0
 376 550 296 560 296 560 c 1
 116 560 l 1
EndSplineSet
Validated: 1
EndChar

StartChar: a
Encoding: 97 97 4
Width: 428
Flags: HW
LayerCount: 2
Fore
SplineSet
210 360 m 0
 246.913085938 360 281.426757812 348.7578125 310 329.666015625 c 1
 310 360 l 1
 390 360 l 1
 390 180 l 1
 390 0 l 1
 310 0 l 1
 310 30.333984375 l 1
 281.426757812 11.2421875 246.913085938 0 210 0 c 0
 110.655273438 0 30 80.6552734375 30 180 c 0
 30 279.344726562 110.655273438 360 210 360 c 0
210 280 m 0
 154.80859375 280 110 235.19140625 110 180 c 0
 110 124.80859375 154.80859375 80 210 80 c 0
 265.19140625 80 310 124.80859375 310 180 c 0
 310 235.19140625 265.19140625 280 210 280 c 0
EndSplineSet
Validated: 524289
EndChar

StartChar: b
Encoding: 98 98 5
Width: 429
Flags: HW
LayerCount: 2
Fore
SplineSet
117 640 m 1
 117 360 l 1
 117 329.666015625 l 1
 145.573242188 348.7578125 180.086914062 360 217 360 c 0
 316.344726562 360 397 279.344726562 397 180 c 0
 397 80.6552734375 316.344726562 0 217 0 c 0
 180.086914062 0 145.573242188 11.2421875 117 30.333984375 c 1
 117 0 l 1
 37 0 l 1
 37 180 l 1
 37 360 l 1
 37 640 l 1
 117 640 l 1
217 280 m 0
 161.80859375 280 117 235.19140625 117 180 c 0
 117 124.80859375 161.80859375 80 217 80 c 0
 272.19140625 80 317 124.80859375 317 180 c 0
 317 235.19140625 272.19140625 280 217 280 c 0
EndSplineSet
Validated: 524289
EndChar

StartChar: D
Encoding: 68 68 6
Width: 549
Flags: HW
LayerCount: 2
Fore
SplineSet
36 640 m 1
 116 640 l 1
 276 640 l 1
 276 640 516 640 516 320 c 0
 516 0 276 0 276 0 c 1
 116 0 l 1
 36 0 l 1
 36 640 l 1
116 560 m 1
 116 80 l 1
 276 80 l 1
 276 80 436 120 436 320 c 0
 436 520 276 560 276 560 c 1
 116 560 l 1
EndSplineSet
Validated: 1
EndChar

StartChar: e
Encoding: 101 101 7
Width: 422
Flags: HW
LayerCount: 2
Fore
SplineSet
208.818359375 359.9765625 m 0
 215.229492188 360.01953125 221.818359375 359.74609375 227.9921875 359.095703125 c 0
 271.924804688 354.682617188 312.703125 334.275390625 342.5703125 301.755859375 c 1
 342.556640625 301.7421875 l 1
 373.05078125 268.532226562 389.970703125 225.086914062 389.970703125 180 c 0
 389.970703125 165 389.970703125 155 384.970703125 140 c 1
 349.970703125 140 l 1
 301.62109375 140 l 1
 118.330078125 140 l 1
 133.76171875 104.68359375 168.995117188 80 210 80 c 0
 239.2734375 80 267.077148438 92.8271484375 286.076171875 115.09765625 c 1
 342.5703125 58.244140625 l 1
 308.482421875 21.1279296875 260.395507812 0.0009765625 210 0 c 0
 110.588867188 0 30 80.5888671875 30 180 c 0
 30 225.086914062 46.919921875 268.532226562 77.4140625 301.7421875 c 1
 77.400390625 301.755859375 l 1
 108.584960938 335.708984375 151.607421875 356.403320312 197.599609375 359.572265625 c 0
 201.189453125 359.8125 204.971679688 359.951171875 208.818359375 359.9765625 c 0
207.525390625 279.86328125 m 0
 205.877929688 279.83984375 204.228515625 279.79296875 202.60546875 279.7265625 c 0
 164.5390625 276.904296875 132.764648438 253.021484375 118.3359375 220 c 1
 301.634765625 220 l 1
 287.7734375 251.723632812 257.8828125 275.092773438 221.548828125 279.328125 c 0
 217.392578125 279.793945312 212.467773438 279.93359375 207.525390625 279.86328125 c 0
EndSplineSet
Validated: 524289
EndChar

StartChar: j
Encoding: 106 106 8
Width: 259
Flags: HW
HStem: -320 80<44.8848 126.616> 340 20G<164.885 244.885> 400 80<169.261 240.509>
VStem: 164.885 80<-200.484 -120.304 -120 360 404.376 475.624>
LayerCount: 2
Fore
SplineSet
141.884765625 360 m 1
 221.884765625 360 l 1
 223 -60 l 1
 223 -80 l 1
 221.884765625 -80 l 1
 211.69921875 -171.103515625 134.671875 -240 43 -240 c 0
 36.3173828125 -240 29.640625 -239.626953125 23 -238.884765625 c 2
 23 -157.98046875 l 1
 29.58203125 -159.323242188 36.2822265625 -160 43 -160 c 0
 98.228515625 -160 143 -115.228515625 143 -60 c 0
 143 -53.2822265625 142.322265625 -46.58203125 140.978515625 -40 c 1
 143 -40 l 1
 141.884765625 360 l 1
143 440 m 0
 143 462.091796875 160.908203125 480 183 480 c 0
 205.091796875 480 223 462.091796875 223 440 c 0
 223 417.908203125 205.091796875 400 183 400 c 0
 160.908203125 400 143 417.908203125 143 440 c 0
EndSplineSet
Validated: 524289
EndChar

StartChar: k
Encoding: 107 107 9
Width: 420
Flags: HW
LayerCount: 2
Fore
SplineSet
37 640 m 1
 117 640 l 1
 117 200 l 1
 237 320 l 1
 347 320 l 1
 210.13671875 180 l 1
 397 0 l 1
 277 0 l 1
 153.568359375 123.431640625 l 1
 117 86.86328125 l 1
 117 0 l 1
 37 0 l 1
 37 6.86328125 l 1
 37 120 l 1
 37 640 l 1
EndSplineSet
Validated: 524289
EndChar

StartChar: p
Encoding: 112 112 10
Width: 429
Flags: HW
LayerCount: 2
Fore
SplineSet
37 360 m 1
 117 360 l 1
 117 329.666015625 l 1
 146.600585938 349.443359375 181.400390625 360 217 360 c 0
 316.411132812 360 397 279.411132812 397 180 c 0
 397 80.5888671875 316.411132812 0 217 0 c 0
 181.400390625 0 146.600585938 10.556640625 117 30.333984375 c 1
 117 0 l 2
 117 -106.666992188 117 -133.333007812 117 -240 c 1
 37 -240 l 1
 37 -133.333007812 37 -106.666992188 37 0 c 2
 37 180 l 1
 37 360 l 1
217 280 m 0
 161.771484375 280 117 235.228515625 117 180 c 0
 117 124.771484375 161.771484375 80 217 80 c 0
 272.228515625 80 317 124.771484375 317 180 c 0
 317 235.228515625 272.228515625 280 217 280 c 0
EndSplineSet
Validated: 524289
EndChar

StartChar: E
Encoding: 69 69 11
Width: 475
Flags: HW
LayerCount: 2
Fore
SplineSet
36 640 m 1
 116 640 l 1
 436 640 l 1
 436 560 l 1
 116 560 l 1
 116 360 l 1
 436 360 l 1
 436 280 l 1
 116 280 l 1
 116 80 l 1
 436 80 l 1
 436 0 l 1
 116 0 l 1
 36 0 l 1
 36 640 l 1
EndSplineSet
Validated: 1
EndChar

StartChar: F
Encoding: 70 70 12
Width: 473
Flags: HW
LayerCount: 2
Fore
SplineSet
36 640 m 1
 116 640 l 1
 436 640 l 1
 436 560 l 1
 116 560 l 1
 116 360 l 1
 436 360 l 1
 436 280 l 1
 116 280 l 1
 116 0 l 1
 36 0 l 1
 36 640 l 1
EndSplineSet
Validated: 1
EndChar

StartChar: G
Encoding: 71 71 13
Width: 624
Flags: HW
LayerCount: 2
Fore
SplineSet
309 640 m 0
 396.098632812 640 473.87109375 594.658203125 525.2421875 523.28515625 c 1
 468.08203125 465.45703125 l 1
 431.533203125 523.017578125 373.901367188 560 309 560 c 0
 198.6171875 560 109 452.459960938 109 320 c 0
 109 318.006835938 109.022460938 316.018554688 109.0625 314.037109375 c 0
 109.064453125 313.922851562 109.06640625 313.813476562 109.068359375 313.69921875 c 0
 109.069335938 313.672851562 109.069335938 313.647460938 109.0703125 313.62109375 c 0
 109.110351562 311.782226562 109.169921875 309.951171875 109.244140625 308.123046875 c 0
 109.258789062 307.779296875 109.2734375 307.4453125 109.2890625 307.1015625 c 0
 109.35546875 305.58984375 109.439453125 304.083007812 109.529296875 302.578125 c 0
 109.575195312 301.818359375 109.622070312 301.072265625 109.673828125 300.314453125 c 0
 109.744140625 299.270507812 109.82421875 298.228515625 109.90625 297.1875 c 0
 113.409179688 253.1640625 126.948242188 212.142578125 147.5859375 178.291015625 c 0
 148.235351562 177.225585938 148.8828125 176.181640625 149.546875 175.12890625 c 0
 149.569335938 175.09375 149.590820312 175.05859375 149.61328125 175.0234375 c 0
 150.06640625 174.307617188 150.521484375 173.59375 150.98046875 172.884765625 c 0
 151.415039062 172.213867188 151.854492188 171.541015625 152.294921875 170.875 c 0
 152.953125 169.879882812 153.616210938 168.889648438 154.287109375 167.908203125 c 0
 154.526367188 167.557617188 154.76171875 167.213867188 155.001953125 166.865234375 c 0
 155.836914062 165.657226562 156.680664062 164.458007812 157.53515625 163.26953125 c 0
 157.694335938 163.048828125 157.850585938 162.833007812 158.009765625 162.61328125 c 0
 158.94140625 161.327148438 159.885742188 160.05078125 160.83984375 158.7890625 c 0
 160.90625 158.700195312 160.970703125 158.614257812 161.037109375 158.525390625 c 0
 162.076171875 157.154296875 163.127929688 155.798828125 164.193359375 154.45703125 c 0
 164.211914062 154.434570312 164.229492188 154.411132812 164.248046875 154.388671875 c 0
 164.256835938 154.377929688 164.264648438 154.366210938 164.2734375 154.35546875 c 0
 165.34765625 153.00390625 166.434570312 151.668945312 167.53515625 150.34765625 c 0
 167.5703125 150.305664062 167.60546875 150.262695312 167.640625 150.220703125 c 0
 168.724609375 148.920898438 169.822265625 147.635742188 170.931640625 146.365234375 c 0
 170.994140625 146.293945312 171.0546875 146.225585938 171.1171875 146.154296875 c 0
 172.198242188 144.918945312 173.291015625 143.698242188 174.39453125 142.4921875 c 0
 174.473632812 142.405273438 174.551757812 142.321289062 174.630859375 142.234375 c 0
 175.713867188 141.0546875 176.807617188 139.891601562 177.912109375 138.740234375 c 0
 178.008789062 138.639648438 178.102539062 138.541992188 178.19921875 138.44140625 c 0
 178.223632812 138.416015625 178.249023438 138.390625 178.2734375 138.365234375 c 0
 179.2890625 137.311523438 180.315429688 136.271484375 181.349609375 135.2421875 c 0
 181.672851562 134.920898438 181.990234375 134.607421875 182.314453125 134.2890625 c 0
 183.184570312 133.43359375 184.061523438 132.587890625 184.943359375 131.75 c 0
 185.319335938 131.392578125 185.690429688 131.04296875 186.068359375 130.689453125 c 0
 186.125976562 130.635742188 186.184570312 130.583007812 186.2421875 130.529296875 c 0
 186.923828125 129.892578125 187.608398438 129.262695312 188.296875 128.63671875 c 0
 189.057617188 127.9453125 189.811523438 127.270507812 190.580078125 126.591796875 c 0
 190.740234375 126.450195312 190.90234375 126.310546875 191.0625 126.169921875 c 0
 191.2265625 126.025390625 191.388671875 125.883789062 191.552734375 125.740234375 c 0
 219.724609375 101.213867188 253.8046875 85.154296875 290.349609375 81.046875 c 0
 291.024414062 80.9716796875 291.698242188 80.896484375 292.375 80.830078125 c 0
 293.083007812 80.759765625 293.78125 80.6943359375 294.4921875 80.6328125 c 0
 295.713867188 80.52734375 296.938476562 80.4326171875 298.166015625 80.353515625 c 0
 298.481445312 80.3330078125 298.7890625 80.3134765625 299.10546875 80.294921875 c 0
 300.627929688 80.2060546875 302.154296875 80.1337890625 303.685546875 80.0859375 c 0
 303.784179688 80.0830078125 303.877929688 80.0791015625 303.9765625 80.076171875 c 0
 305.646484375 80.0263671875 307.3203125 80 309 80 c 0
 310.294921875 80 311.587890625 80.0146484375 312.87890625 80.044921875 c 0
 312.908203125 80.0458984375 312.9375 80.0458984375 312.966796875 80.046875 c 0
 312.985351562 80.046875 313.004882812 80.048828125 313.0234375 80.048828125 c 0
 314.265625 80.0791015625 315.505859375 80.1240234375 316.744140625 80.181640625 c 0
 316.854492188 80.1865234375 316.961914062 80.1923828125 317.072265625 80.197265625 c 0
 318.248046875 80.25390625 319.421875 80.3232421875 320.59375 80.404296875 c 0
 320.708984375 80.412109375 320.822265625 80.419921875 320.9375 80.427734375 c 0
 320.982421875 80.4306640625 321.025390625 80.4345703125 321.0703125 80.4375 c 0
 322.203125 80.51953125 323.333984375 80.6142578125 324.462890625 80.71875 c 0
 324.690429688 80.740234375 324.9140625 80.7607421875 325.140625 80.783203125 c 0
 326.073242188 80.873046875 327.001953125 80.97265625 327.931640625 81.078125 c 0
 328.491210938 81.142578125 329.045898438 81.208984375 329.603515625 81.279296875 c 0
 330.302734375 81.3662109375 331.001953125 81.455078125 331.69921875 81.55078125 c 0
 332.370117188 81.6435546875 333.040039062 81.7392578125 333.708984375 81.83984375 c 0
 334.162109375 81.9072265625 334.614257812 81.9775390625 335.06640625 82.048828125 c 0
 335.970703125 82.1904296875 336.876953125 82.33984375 337.77734375 82.49609375 c 0
 337.790039062 82.498046875 337.803710938 82.501953125 337.81640625 82.50390625 c 0
 338.188476562 82.5693359375 338.563476562 82.6357421875 338.935546875 82.703125 c 0
 352.83984375 85.2294921875 366.5625 89.5693359375 379.375 95.349609375 c 0
 380.411132812 95.81640625 381.465820312 96.3037109375 382.494140625 96.791015625 c 0
 382.510742188 96.798828125 382.526367188 96.806640625 382.54296875 96.814453125 c 0
 382.577148438 96.8310546875 382.612304688 96.8466796875 382.646484375 96.86328125 c 0
 383.657226562 97.34375 384.684570312 97.8427734375 385.6875 98.341796875 c 0
 385.688476562 98.341796875 385.688476562 98.34375 385.689453125 98.34375 c 0
 386.03515625 98.5166015625 386.387695312 98.6943359375 386.732421875 98.869140625 c 0
 387.423828125 99.21875 388.125 99.5791015625 388.8125 99.9375 c 0
 388.930664062 100 389.049804688 100.0625 389.16796875 100.125 c 0
 389.66015625 100.383789062 390.150390625 100.645507812 390.640625 100.908203125 c 0
 390.720703125 100.951171875 390.802734375 100.994140625 390.8828125 101.037109375 c 0
 391.358398438 101.29296875 391.840820312 101.555664062 392.314453125 101.81640625 c 0
 393.015625 102.202148438 393.71484375 102.592773438 394.412109375 102.98828125 c 0
 394.823242188 103.221679688 395.239257812 103.458984375 395.6484375 103.6953125 c 0
 396.44921875 104.157226562 397.248046875 104.623046875 398.04296875 105.09765625 c 0
 398.34765625 105.280273438 398.676757812 105.477539062 398.98046875 105.662109375 c 0
 399.004882812 105.676757812 399.030273438 105.692382812 399.0546875 105.70703125 c 0
 399.8359375 106.180664062 400.614257812 106.659179688 401.390625 107.14453125 c 0
 401.6171875 107.28515625 401.845703125 107.428710938 402.072265625 107.5703125 c 0
 402.106445312 107.591796875 402.139648438 107.61328125 402.173828125 107.634765625 c 0
 403.083007812 108.209960938 403.989257812 108.79296875 404.890625 109.384765625 c 0
 405.088867188 109.514648438 405.288085938 109.64453125 405.486328125 109.775390625 c 0
 406.421875 110.39453125 407.352539062 111.021484375 408.279296875 111.658203125 c 0
 408.430664062 111.76171875 408.58203125 111.866210938 408.732421875 111.970703125 c 0
 409.677734375 112.624023438 410.619140625 113.286132812 411.5546875 113.95703125 c 0
 411.666015625 114.036132812 411.77734375 114.114257812 411.888671875 114.193359375 c 0
 411.903320312 114.204101562 411.918945312 114.215820312 411.93359375 114.2265625 c 0
 412.952148438 114.9609375 413.965820312 115.705078125 414.97265625 116.4609375 c 0
 414.982421875 116.467773438 414.9921875 116.475585938 415.001953125 116.482421875 c 0
 415.015625 116.493164062 415.029296875 116.502929688 415.04296875 116.513671875 c 0
 416.0703125 117.28515625 417.091796875 118.067382812 418.107421875 118.861328125 c 0
 418.137695312 118.883789062 418.166992188 118.907226562 418.197265625 118.9296875 c 0
 418.225585938 118.951171875 418.252929688 118.974609375 418.28125 118.99609375 c 0
 419.311523438 119.802734375 420.3359375 120.622070312 421.353515625 121.451171875 c 0
 422.3984375 122.302734375 423.4375 123.166015625 424.46875 124.041015625 c 0
 425.5 124.916015625 426.525390625 125.8046875 427.54296875 126.703125 c 0
 428.534179688 127.578125 429.518554688 128.46484375 430.49609375 129.361328125 c 0
 430.522460938 129.385742188 430.549804688 129.409179688 430.576171875 129.43359375 c 0
 430.596679688 129.452148438 430.616210938 129.471679688 430.63671875 129.490234375 c 0
 431.600585938 130.375976562 432.557617188 131.270507812 433.5078125 132.177734375 c 0
 433.526367188 132.196289062 433.545898438 132.213867188 433.564453125 132.232421875 c 0
 433.591796875 132.2578125 433.6171875 132.28515625 433.64453125 132.310546875 c 0
 434.551757812 133.177734375 435.453125 134.0546875 436.34765625 134.94140625 c 0
 436.447265625 135.040039062 436.544921875 135.137695312 436.64453125 135.236328125 c 0
 437.4921875 136.079101562 438.333984375 136.932617188 439.169921875 137.79296875 c 0
 439.327148438 137.954101562 439.481445312 138.11328125 439.638671875 138.275390625 c 0
 440.4609375 139.126953125 441.278320312 139.986328125 442.08984375 140.853515625 c 0
 442.217773438 140.991210938 442.342773438 141.125976562 442.470703125 141.263671875 c 0
 443.240234375 142.090820312 444.002929688 142.92578125 444.76171875 143.767578125 c 0
 444.944335938 143.96875 445.123046875 144.166992188 445.3046875 144.369140625 c 0
 445.309570312 144.375 445.315429688 144.380859375 445.3203125 144.38671875 c 0
 446.018554688 145.166015625 446.711914062 145.954101562 447.400390625 146.74609375 c 0
 447.715820312 147.109375 448.022460938 147.46484375 448.3359375 147.830078125 c 0
 448.888671875 148.473632812 449.4375 149.122070312 449.984375 149.7734375 c 0
 450.329101562 150.184570312 450.665039062 150.587890625 451.0078125 151.001953125 c 0
 451.052734375 151.056640625 451.09765625 151.109375 451.142578125 151.1640625 c 0
 451.62890625 151.752929688 452.112304688 152.345703125 452.59375 152.94140625 c 0
 452.619140625 152.97265625 452.642578125 153.001953125 452.66796875 153.033203125 c 0
 453.069335938 153.530273438 453.459960938 154.018554688 453.857421875 154.51953125 c 0
 454.298828125 155.076171875 454.73828125 155.635742188 455.17578125 156.197265625 c 0
 455.61328125 156.759765625 456.0390625 157.313476562 456.47265625 157.880859375 c 0
 456.5 157.91796875 456.52734375 157.953125 456.5546875 157.990234375 c 0
 456.8671875 158.399414062 457.177734375 158.810546875 457.48828125 159.22265625 c 0
 458.134765625 160.08203125 458.762695312 160.928710938 459.3984375 161.798828125 c 0
 459.4296875 161.841796875 459.4609375 161.884765625 459.4921875 161.927734375 c 0
 459.54296875 161.997070312 459.591796875 162.065429688 459.642578125 162.134765625 c 0
 460.341796875 163.094726562 461.020507812 164.041992188 461.70703125 165.015625 c 0
 461.952148438 165.36328125 462.192382812 165.705078125 462.435546875 166.0546875 c 0
 463.165039062 167.102539062 463.875 168.138671875 464.58984375 169.201171875 c 0
 465.78125 170.970703125 466.932617188 172.732421875 468.08203125 174.54296875 c 1
 468.08984375 174.53515625 l 1
 480.473632812 194.033203125 490.49609375 216.022460938 497.560546875 240 c 1
 349 240 l 1
 349 320 l 1
 509 320 l 1
 549 320 l 1
 589 320 l 1
 613.963867188 143.017578125 471.666015625 7.5107421875 321.515625 0.3203125 c 0
 319.919921875 0.23828125 318.377929688 0.173828125 316.775390625 0.123046875 c 0
 316.272460938 0.1083984375 315.768554688 0.091796875 315.265625 0.080078125 c 0
 314.454101562 0.0595703125 313.6796875 0.0439453125 312.8671875 0.03125 c 0
 312.674804688 0.0283203125 312.481445312 0.0263671875 312.2890625 0.0234375 c 0
 311.173828125 0.0078125 310.118164062 0.0009765625 309 0 c 0
 307.862304688 0 306.788085938 0.0078125 305.654296875 0.0234375 c 0
 305.504882812 0.025390625 305.356445312 0.02734375 305.20703125 0.029296875 c 0
 304.103515625 0.046875 303.051757812 0.0703125 301.951171875 0.1015625 c 0
 301.807617188 0.10546875 301.663085938 0.111328125 301.51953125 0.115234375 c 0
 300.666015625 0.1416015625 299.84765625 0.169921875 298.99609375 0.205078125 c 0
 298.299804688 0.2333984375 297.604492188 0.2646484375 296.91015625 0.298828125 c 0
 240.006835938 3.0615234375 187.510742188 25.2470703125 144.337890625 61.18359375 c 0
 144.125 61.359375 143.915039062 61.5341796875 143.703125 61.7109375 c 0
 142.404296875 62.7978515625 141.11328125 63.8955078125 139.83203125 65.0078125 c 0
 138.986328125 65.740234375 138.158203125 66.4677734375 137.3203125 67.2109375 c 0
 136.6171875 67.8359375 135.915039062 68.4619140625 135.216796875 69.09375 c 0
 133.944335938 70.244140625 132.703125 71.38671875 131.44921875 72.5625 c 0
 131.086914062 72.90234375 130.725585938 73.2421875 130.365234375 73.583984375 c 0
 128.897460938 74.974609375 127.469726562 76.353515625 126.02734375 77.77734375 c 0
 126.008789062 77.7958984375 125.989257812 77.8134765625 125.970703125 77.83203125 c 0
 125.818359375 77.982421875 125.666015625 78.1337890625 125.513671875 78.28515625 c 0
 123.950195312 79.8359375 122.43359375 81.3740234375 120.900390625 82.962890625 c 0
 120.896484375 82.966796875 120.892578125 82.970703125 120.888671875 82.974609375 c 0
 120.7734375 83.0947265625 120.658203125 83.2138671875 120.54296875 83.333984375 c 0
 118.97265625 84.966796875 117.452148438 86.5830078125 115.9140625 88.255859375 c 0
 115.896484375 88.275390625 115.87890625 88.294921875 115.861328125 88.314453125 c 0
 115.827148438 88.3525390625 115.791992188 88.3896484375 115.7578125 88.427734375 c 0
 114.14453125 90.185546875 112.5859375 91.92578125 111.009765625 93.7265625 c 0
 109.4609375 95.4970703125 107.96484375 97.248046875 106.453125 99.05859375 c 0
 106.366210938 99.162109375 106.279296875 99.265625 106.193359375 99.369140625 c 0
 104.719726562 101.137695312 103.295898438 102.88671875 101.857421875 104.693359375 c 0
 101.80078125 104.764648438 101.744140625 104.834960938 101.6875 104.90625 c 0
 101.672851562 104.924804688 101.657226562 104.944335938 101.642578125 104.962890625 c 0
 100.251953125 106.713867188 98.9072265625 108.446289062 97.55078125 110.232421875 c 0
 97.3662109375 110.475585938 97.18359375 110.719726562 97 110.962890625 c 0
 95.79296875 112.561523438 94.623046875 114.141601562 93.443359375 115.767578125 c 0
 93.0888671875 116.254882812 92.736328125 116.744140625 92.384765625 117.234375 c 0
 91.3740234375 118.64453125 90.390625 120.040039062 89.400390625 121.470703125 c 0
 89.3994140625 121.47265625 89.3974609375 121.474609375 89.396484375 121.4765625 c 0
 88.888671875 122.208984375 88.38671875 122.944335938 87.884765625 123.681640625 c 0
 87.1318359375 124.790039062 86.396484375 125.88671875 85.65625 127.005859375 c 0
 84.7939453125 128.307617188 83.9423828125 129.619140625 83.09765625 130.935546875 c 0
 82.880859375 131.2734375 82.6669921875 131.608398438 82.451171875 131.947265625 c 0
 53.6865234375 177.129882812 35.0205078125 231.239257812 30.236328125 289.962890625 c 0
 30.1376953125 291.155273438 30.0458984375 292.336914062 29.958984375 293.533203125 c 0
 29.9560546875 293.571289062 29.9541015625 293.610351562 29.951171875 293.6484375 c 0
 29.8798828125 294.654296875 29.8076171875 295.661132812 29.744140625 296.669921875 c 0
 29.7431640625 296.694335938 29.7412109375 296.717773438 29.740234375 296.7421875 c 0
 29.609375 298.8046875 29.4970703125 300.825195312 29.400390625 302.8984375 c 0
 29.3994140625 302.911132812 29.3994140625 302.924804688 29.3984375 302.9375 c 0
 29.3798828125 303.350585938 29.361328125 303.763671875 29.34375 304.177734375 c 0
 29.2373046875 306.641601562 29.1572265625 309.025390625 29.099609375 311.50390625 c 0
 29.0966796875 311.640625 29.0927734375 311.77734375 29.08984375 311.9140625 c 0
 29.029296875 314.646484375 29 317.250976562 29 320 c 0
 29 496.612304688 154.463867188 640 309 640 c 0
EndSplineSet
Validated: 524321
EndChar

StartChar: H
Encoding: 72 72 14
Width: 555
Flags: HW
LayerCount: 2
Fore
SplineSet
36 640 m 1
 116 640 l 1
 116 560 l 1
 116 360 l 1
 436 360 l 1
 436 640 l 1
 516 640 l 1
 516 560 l 1
 516 360 l 1
 516 280 l 1
 516 200 l 1
 516 0 l 1
 436 0 l 1
 436 280 l 1
 116 280 l 1
 116 200 l 1
 116 0 l 1
 36 0 l 1
 36 640 l 1
EndSplineSet
Validated: 1
EndChar

StartChar: I
Encoding: 73 73 15
Width: 155
Flags: W
HStem: 0 21G<36 116> 620 20G<36 116>
VStem: 36 80<0 640>
LayerCount: 2
Fore
SplineSet
36 640 m 1
 116 640 l 1
 116 0 l 1
 36 0 l 1
 36 640 l 1
EndSplineSet
Validated: 1
EndChar

StartChar: O
Encoding: 79 79 16
Width: 621
Flags: W
HStem: 0 80<226.25 391.75> 560 80<226.25 391.75>
VStem: 29 80<214.096 425.905> 509 80<214.096 425.905>
LayerCount: 2
Fore
SplineSet
309 640 m 0
 463.536132812 640 589 496.61328125 589 320 c 0
 589 143.387695312 463.536132812 0 309 0 c 0
 154.463867188 0 29 143.387695312 29 320 c 0
 29 496.61328125 154.463867188 640 309 640 c 0
309 560 m 0
 198.6171875 560 109 452.459960938 109 320 c 0
 109 187.540039062 198.6171875 80 309 80 c 0
 419.3828125 80 509 187.540039062 509 320 c 0
 509 452.459960938 419.3828125 560 309 560 c 0
EndSplineSet
Validated: 524289
EndChar

StartChar: Q
Encoding: 81 81 17
Width: 622
Flags: HW
LayerCount: 2
Fore
SplineSet
309 640 m 0
 463.536132812 640 589 496.61328125 589 320 c 0
 589 143.387695312 463.536132812 0 309 0 c 0
 154.463867188 0 29 143.387695312 29 320 c 0
 29 496.61328125 154.463867188 640 309 640 c 0
309 560 m 0
 198.6171875 560 109 452.459960938 109 320 c 0
 109 187.540039062 198.6171875 80 309 80 c 0
 419.3828125 80 509 187.540039062 509 320 c 0
 509 452.459960938 419.3828125 560 309 560 c 0
306.512695312 140 m 1
 346.512695312 209.282226562 l 1
 589 69.2822265625 l 1
 549 0 l 1
 306.512695312 140 l 1
EndSplineSet
Validated: 524293
EndChar

StartChar: J
Encoding: 74 74 18
Width: 224
Flags: HW
LayerCount: 2
Fore
SplineSet
106 640 m 1
 186 640 l 1
 186 80 l 2
 186 35.8466796875 150.153320312 0 106 0 c 2
 26 0 l 1
 26 80 l 1
 65.923828125 80 l 1
 66.076171875 80 l 2
 88.1171875 80.0419921875 106 97.94921875 106 120 c 2
 106 160 l 1
 106 640 l 1
EndSplineSet
Validated: 524289
EndChar

StartChar: K
Encoding: 75 75 19
Width: 491
Flags: HW
LayerCount: 2
Fore
SplineSet
36 640 m 1
 116 640 l 1
 116 440 l 1
 116 400 l 1
 356 640 l 1
 466 640 l 1
 149.13671875 320 l 1
 466 0 l 1
 356 0 l 1
 116 240 l 1
 116 200 l 1
 116 80 l 1
 116 0 l 1
 36 0 l 1
 36 640 l 1
EndSplineSet
Validated: 524289
EndChar

StartChar: L
Encoding: 76 76 20
Width: 469
Flags: HW
LayerCount: 2
Fore
SplineSet
36 0 m 1
 36 640 l 1
 116 640 l 1
 116 440 l 1
 116 360 l 1
 116 280 l 1
 116 200 l 1
 116 80 l 1
 436 80 l 1
 436 0 l 1
 116 0 l 1
 36 0 l 1
EndSplineSet
Validated: 1
EndChar

StartChar: M
Encoding: 77 77 21
Width: 675
Flags: HW
LayerCount: 2
Fore
SplineSet
36 640 m 1
 116 640 l 1
 336 420 l 1
 556 640 l 1
 636 640 l 1
 636 0 l 1
 556 0 l 1
 556 526.86328125 l 1
 482.666015625 453.529296875 409.33203125 380.196289062 336 306.861328125 c 1
 262.66796875 380.196289062 189.333984375 453.530273438 116 526.86328125 c 1
 116 0 l 1
 36 0 l 1
 36 640 l 1
EndSplineSet
Validated: 524289
EndChar

StartChar: N
Encoding: 78 78 22
Width: 555
Flags: HW
LayerCount: 2
Fore
SplineSet
36 640 m 1
 116 640 l 1
 436 142.166015625 l 1
 436 640 l 1
 516 640 l 1
 516 0 l 1
 436 0 l 1
 116 492.046875 l 1
 116 0 l 1
 36 0 l 1
 36 640 l 1
EndSplineSet
Validated: 524289
EndChar

StartChar: T
Encoding: 84 84 24
Width: 541
Flags: HW
LayerCount: 2
Fore
SplineSet
29 640 m 1
 509 640 l 1
 509 560 l 1
 309 560 l 1
 309 0 l 1
 229 0 l 1
 229 560 l 1
 29 560 l 1
 29 640 l 1
EndSplineSet
Validated: 1
EndChar

StartChar: Z
Encoding: 90 90 25
Width: 544
Flags: HW
LayerCount: 2
Fore
SplineSet
30.18359375 640 m 1
 473.87890625 640 l 1
 510.18359375 640 l 1
 510.18359375 560 l 1
 510.18359375 557.021484375 l 1
 131.990234375 80 l 1
 510.18359375 80 l 1
 510.18359375 0 l 1
 30.18359375 0 l 1
 30.18359375 79.982421875 l 1
 30 80.12890625 l 1
 410.453125 560 l 1
 30.18359375 560 l 1
 30.18359375 640 l 1
EndSplineSet
Validated: 524289
EndChar

StartChar: U
Encoding: 85 85 26
Width: 551
Flags: HW
LayerCount: 2
Fore
SplineSet
34 640 m 1
 114 640 l 1
 114 240 l 1
 117.234375 240 l 1
 126.524414062 183.106445312 154.991210938 134.948242188 194 106.794921875 c 0
 217.500976562 89.8349609375 245.107421875 80.126953125 274.171875 80.126953125 c 0
 303.235351562 80.126953125 330.499023438 89.8349609375 354 106.794921875 c 0
 393.009765625 134.947265625 421.4765625 183.106445312 430.767578125 240 c 1
 434 240 l 1
 434 640 l 1
 514 640 l 1
 514 240 l 2
 514 151.135742188 465.85546875 73.640625 394 32.154296875 c 0
 358.749023438 11.8017578125 317.337890625 0.1533203125 273.743164062 0.1533203125 c 0
 230.147460938 0.1533203125 189.250976562 11.8017578125 154 32.154296875 c 0
 82.14453125 73.640625 34 151.135742188 34 240 c 2
 34 640 l 1
EndSplineSet
Validated: 524289
EndChar

StartChar: S
Encoding: 83 83 27
Width: 495
Flags: HW
LayerCount: 2
Fore
SplineSet
265.90234375 637.470703125 m 0
 265.918945312 637.470703125 265.93359375 637.470703125 265.950195312 637.470703125 c 0
 265.966796875 637.470703125 265.983398438 637.470703125 266 637.470703125 c 0
 266.016601562 637.470703125 266.03125 637.470703125 266.047851562 637.470703125 c 0
 266.064453125 637.470703125 266.081054688 637.470703125 266.09765625 637.470703125 c 0
 340.711914062 637.447265625 407.3359375 611.947265625 451.34765625 571.818359375 c 1
 402.443359375 509.69921875 l 1
 374.311523438 538.407226562 323.760742188 557.470703125 266 557.470703125 c 0
 177.693359375 557.470703125 106 512.662109375 106 457.470703125 c 0
 106 402.279296875 177.693359375 357.470703125 266 357.470703125 c 1
 266 354.94140625 l 1
 379.291015625 340.54296875 465.90234375 266.51171875 465.90234375 177.470703125 c 0
 465.90234375 78.1513671875 358.4140625 -2.4892578125 226 -2.529296875 c 0
 225.983398438 -2.529296875 225.96875 -2.529296875 225.952148438 -2.529296875 c 0
 225.935546875 -2.529296875 225.918945312 -2.529296875 225.90234375 -2.529296875 c 0
 225.885742188 -2.529296875 225.87109375 -2.529296875 225.854492188 -2.529296875 c 0
 225.837890625 -2.529296875 225.821289062 -2.529296875 225.8046875 -2.529296875 c 0
 151.190429688 -2.505859375 84.56640625 22.994140625 40.5546875 63.123046875 c 1
 89.458984375 125.2421875 l 1
 117.590820312 96.53515625 168.141601562 77.470703125 225.90234375 77.470703125 c 0
 314.208984375 77.470703125 385.90234375 122.279296875 385.90234375 177.470703125 c 0
 385.90234375 232.662109375 314.208984375 277.470703125 225.90234375 277.470703125 c 1
 225.90234375 280 l 1
 112.611328125 294.3984375 26 368.4296875 26 457.470703125 c 0
 26 556.790039062 133.48828125 637.430664062 265.90234375 637.470703125 c 0
EndSplineSet
Validated: 524289
EndChar

StartChar: R
Encoding: 82 82 28
Width: 487
Flags: HW
LayerCount: 2
Fore
SplineSet
36 640 m 1
 116 640 l 1
 276 640 l 1
 276 640 456 640 456 460 c 0
 456 280 296 280 296 280 c 1
 229.13671875 280 l 1
 452.568359375 56.568359375 l 1
 396 0 l 1
 116 280 l 1
 116 0 l 1
 36 0 l 1
 36 640 l 1
116 560 m 1
 116 360 l 1
 116 360 296 360 296 360 c 2
 296 360 376 370 376 460 c 0
 376 550 296 560 296 560 c 1
 116 560 l 1
EndSplineSet
Validated: 524289
EndChar

StartChar: X
Encoding: 88 88 29
Width: 536
Flags: HW
LayerCount: 2
Fore
SplineSet
50.40234375 640 m 1
 142.77734375 640 l 1
 267.640625 423.73046875 l 1
 392.50390625 640 l 1
 484.87890625 640 l 1
 313.828125 343.73046875 l 1
 512.28125 0 l 1
 419.90625 0 l 1
 267.640625 263.73046875 l 1
 115.375 0 l 1
 23 0 l 1
 221.453125 343.73046875 l 1
 50.40234375 640 l 1
EndSplineSet
Validated: 524289
EndChar

StartChar: V
Encoding: 86 86 30
Width: 702
Flags: HW
LayerCount: 2
Fore
SplineSet
352.828125 97.865234375 m 1
 432.829101562 276.494140625 513.000976562 461.370117188 593 640 c 1
 678 640 l 1
 394 0 l 1
 309 0 l 1
 23 640 l 1
 113 640 l 1
 193 461.370117188 272.827148438 276.494140625 352.828125 97.865234375 c 1
EndSplineSet
Validated: 524289
EndChar

StartChar: W
Encoding: 87 87 31
Width: 791
Flags: HW
LayerCount: 2
Fore
SplineSet
24 640 m 1
 106.8203125 640 l 1
 235.486328125 159.8125 l 1
 355.486328125 640 l 1
 438.306640625 640 l 1
 555.486328125 159.8125 l 1
 684.15234375 640 l 1
 766.97265625 640 l 1
 595.486328125 0 l 1
 515.486328125 0 l 1
 395.486328125 447.84765625 l 1
 275.486328125 0 l 1
 195.486328125 0 l 1
 24 640 l 1
EndSplineSet
Validated: 524289
EndChar

StartChar: Y
Encoding: 89 89 32
Width: 532
Flags: HW
LayerCount: 2
Fore
SplineSet
23 640 m 1
 115.375 640 l 1
 265.486328125 380 l 1
 415.59765625 640 l 1
 507.97265625 640 l 1
 300.126953125 295 l 1
 300.126953125 0 l 1
 220.126953125 0 l 1
 220.126953125 295 l 1
 23 640 l 1
EndSplineSet
Validated: 524289
EndChar

StartChar: d
Encoding: 100 100 33
Width: 428
Flags: HW
LayerCount: 2
Fore
SplineSet
310 640 m 1
 390 640 l 1
 390 360 l 1
 390 180 l 1
 390 0 l 1
 310 0 l 1
 310 30.333984375 l 1
 281.426757812 11.2421875 246.913085938 0 210 0 c 0
 110.655273438 0 30 80.6552734375 30 180 c 0
 30 279.344726562 110.655273438 360 210 360 c 0
 246.913085938 360 281.426757812 348.7578125 310 329.666015625 c 1
 310 360 l 1
 310 640 l 1
210 280 m 0
 154.80859375 280 110 235.19140625 110 180 c 0
 110 124.80859375 154.80859375 80 210 80 c 0
 265.19140625 80 310 124.80859375 310 180 c 0
 310 235.19140625 265.19140625 280 210 280 c 0
EndSplineSet
Validated: 524289
EndChar

StartChar: c
Encoding: 99 99 34
Width: 370
Flags: HW
LayerCount: 2
Fore
SplineSet
210 360 m 0
 262.440429688 359.999023438 309.659179688 337.58984375 342.5703125 301.755859375 c 1
 286.076171875 244.90234375 l 1
 267.728515625 266.409179688 240.458007812 280 210 280 c 0
 154.80859375 280 110 235.19140625 110 180 c 0
 110 124.80859375 154.80859375 80 210 80 c 0
 240.458007812 80 267.728515625 93.5908203125 286.076171875 115.09765625 c 1
 342.5703125 58.244140625 l 1
 309.659179688 22.41015625 262.440429688 0.0009765625 210 0 c 0
 110.655273438 0 30 80.6552734375 30 180 c 0
 30 279.344726562 110.655273438 360 210 360 c 0
EndSplineSet
Validated: 524289
EndChar

StartChar: o
Encoding: 111 111 35
Width: 422
Flags: HW
HStem: 0 80<148.207 271.793> 280 80<148.207 271.793>
VStem: 30 80<118.207 241.793> 310 80<118.207 241.793>
LayerCount: 2
Fore
SplineSet
210 360 m 0
 309.344726562 360 390 279.344726562 390 180 c 0
 390 80.6552734375 309.344726562 0 210 0 c 0
 110.655273438 0 30 80.6552734375 30 180 c 0
 30 279.344726562 110.655273438 360 210 360 c 0
210 280 m 0
 154.80859375 280 110 235.19140625 110 180 c 0
 110 124.80859375 154.80859375 80 210 80 c 0
 265.19140625 80 310 124.80859375 310 180 c 0
 310 235.19140625 265.19140625 280 210 280 c 0
EndSplineSet
Validated: 524289
EndChar

StartChar: m
Encoding: 109 109 36
Width: 633
Flags: HW
LayerCount: 2
Fore
SplineSet
37 360 m 1
 117 360 l 1
 117 338.564453125 l 1
 140.416992188 352.083984375 167.748046875 359.9453125 196.6953125 360 c 0
 196.747070312 360 196.79296875 360 196.844726562 360 c 0
 196.896484375 360 196.948242188 360 197 360 c 0
 244.782226562 359.999023438 287.671875 339.083984375 317 305.828125 c 1
 346.264648438 339.01171875 389.038085938 359.908203125 436.6953125 360 c 0
 436.747070312 360 436.79296875 360 436.844726562 360 c 0
 436.896484375 360 436.948242188 360 437 360 c 0
 525.306640625 360 597 288.306640625 597 200 c 2
 597 0 l 1
 517 0 l 1
 517 200 l 2
 517 244.153320312 481.153320312 280 437 280 c 0
 436.990234375 280 436.981445312 280 436.971679688 280 c 0
 436.9609375 280 436.951171875 280 436.94140625 280 c 0
 392.815429688 279.967773438 357 244.1328125 357 200 c 2
 357 0 l 1
 277 0 l 1
 277 200 l 2
 277 200.010742188 277 200.01953125 277 200.029296875 c 0
 277 200.040039062 277 200.049804688 277 200.060546875 c 0
 276.966796875 244.185546875 241.1328125 280 197 280 c 0
 196.990234375 280 196.981445312 280 196.971679688 280 c 0
 196.9609375 280 196.951171875 280 196.94140625 280 c 0
 152.815429688 279.967773438 117 244.1328125 117 200 c 2
 117 0 l 1
 37 0 l 1
 37 360 l 1
EndSplineSet
Validated: 524289
EndChar

StartChar: s
Encoding: 115 115 37
Width: 279
Flags: HW
LayerCount: 2
Fore
SplineSet
149 360 m 0
 188.608398438 360 223.729492188 340.807617188 245.583984375 311.21875 c 1
 187.55078125 250.662109375 l 1
 182.8828125 267.575195312 167.397460938 280 149 280 c 2
 148.923828125 280 l 2
 126.862304688 279.958007812 109 262.061523438 109 240 c 0
 109 217.908203125 126.908203125 220 149 220 c 1
 205.752929688 213.788085938 249 179.458984375 249 120 c 0
 249 53.7255859375 195.274414062 0 129 0 c 0
 89.3916015625 0 54.2705078125 19.1923828125 32.416015625 48.78125 c 1
 90.44921875 109.337890625 l 1
 95.1171875 92.4248046875 110.602539062 80 129 80 c 2
 129.076171875 80 l 2
 151.137695312 80.0419921875 169 97.9384765625 169 120 c 0
 169 142.091796875 151.091796875 140 129 140 c 1
 72.2470703125 146.211914062 29 180.541015625 29 240 c 0
 29 306.274414062 82.7255859375 360 149 360 c 0
EndSplineSet
Validated: 524321
EndChar

StartChar: n
Encoding: 110 110 38
Width: 393
Flags: HW
LayerCount: 2
Fore
SplineSet
37 360 m 1
 117 360 l 1
 117 338.564453125 l 1
 140.416992188 352.083984375 167.748046875 359.9453125 196.6953125 360 c 0
 196.747070312 360 196.79296875 360 196.844726562 360 c 0
 196.896484375 360 196.948242188 360 197 360 c 0
 285.306640625 360 357 288.306640625 357 200 c 2
 357 0 l 1
 277 0 l 1
 277 200 l 2
 277 244.153320312 241.153320312 280 197 280 c 0
 196.990234375 280 196.981445312 280 196.971679688 280 c 0
 196.9609375 280 196.951171875 280 196.94140625 280 c 0
 152.815429688 279.967773438 117 244.1328125 117 200 c 2
 117 0 l 1
 37 0 l 1
 37 200 l 1
 37 360 l 1
EndSplineSet
Validated: 524289
EndChar

StartChar: f
Encoding: 102 102 39
Width: 381
Flags: HW
LayerCount: 2
Fore
SplineSet
289 640 m 2
 349 640 l 1
 349 560 l 1
 289 560 l 2
 233.80859375 560 189 515.19140625 189 460 c 0
 189 453.125 189.697265625 446.486328125 191.021484375 440 c 1
 189 440 l 1
 189 360 l 1
 289 360 l 1
 349 360 l 1
 349 280 l 1
 289 280 l 1
 189 280 l 1
 189 0 l 1
 109 0 l 1
 109 280 l 1
 29 280 l 1
 29 360 l 1
 109 360 l 1
 109 460 l 1
 109 480 l 1
 110.115234375 480 l 1
 120.162109375 569.857421875 196.479492188 640 289 640 c 2
EndSplineSet
Validated: 524289
EndChar

StartChar: g
Encoding: 103 103 40
Width: 428
Flags: HW
LayerCount: 2
Fore
SplineSet
210 360 m 0
 246.913085938 360 281.426757812 348.7578125 310 329.666015625 c 1
 310 360 l 1
 390 360 l 1
 390 180 l 1
 390 -80 l 1
 390.904296875 -80 l 1
 380.857421875 -169.857421875 304.540039062 -240 212.01953125 -240 c 0
 146.546875 -240 89.306640625 -205.16015625 57.806640625 -152.833984375 c 1
 121.525390625 -102.548828125 l 1
 137.504882812 -136.53515625 172.005859375 -159.999023438 212.01953125 -160 c 0
 260.3359375 -160 300.6953125 -125.584960938 310 -80 c 1
 310 30.333984375 l 1
 281.426757812 11.2421875 246.913085938 0 210 0 c 0
 110.655273438 0 30 80.6552734375 30 180 c 0
 30 279.344726562 110.655273438 360 210 360 c 0
210 280 m 0
 154.80859375 280 110 235.19140625 110 180 c 0
 110 124.80859375 154.80859375 80 210 80 c 0
 265.19140625 80 310 124.80859375 310 180 c 0
 310 235.19140625 265.19140625 280 210 280 c 0
EndSplineSet
Validated: 524289
EndChar

StartChar: h
Encoding: 104 104 41
Width: 432
Flags: HW
LayerCount: 2
Fore
SplineSet
37 640 m 1
 117 640 l 1
 117 329.666015625 l 1
 145.573242188 348.7578125 180.086914062 360 217 360 c 0
 316.344726562 360 397 279.344726562 397 180 c 0
 397 173.176757812 396.625976562 166.626953125 395.884765625 160 c 1
 397 160 l 1
 397 0 l 1
 317 0 l 1
 317 160 l 1
 314.98046875 160 l 1
 316.303710938 166.484375 317 173.126953125 317 180 c 0
 317 235.19140625 272.19140625 280 217 280 c 0
 161.80859375 280 117 235.19140625 117 180 c 0
 117 173.125 117.697265625 166.486328125 119.021484375 160 c 1
 117 160 l 1
 117 30.333984375 l 1
 117 0 l 1
 37 0 l 1
 37 180 l 1
 37 640 l 1
EndSplineSet
Validated: 524289
EndChar

StartChar: i
Encoding: 105 105 42
Width: 155
Flags: W
HStem: 0 21G<37 117> 340 20G<37 117> 400 80<41.3759 112.624>
VStem: 37 80<0 360 404.376 475.624>
LayerCount: 2
Fore
SplineSet
37 0 m 1
 37 360 l 1
 117 360 l 1
 117 0 l 1
 37 0 l 1
37 440 m 0
 37 462.091796875 54.908203125 480 77 480 c 0
 99.091796875 480 117 462.091796875 117 440 c 0
 117 417.908203125 99.091796875 400 77 400 c 0
 54.908203125 400 37 417.908203125 37 440 c 0
EndSplineSet
Validated: 524289
EndChar

StartChar: l
Encoding: 108 108 43
Width: 155
Flags: HW
LayerCount: 2
Fore
SplineSet
37 640 m 1
 117 640 l 1
 117 0 l 1
 37 0 l 1
 37 640 l 1
EndSplineSet
Validated: 1
EndChar

StartChar: q
Encoding: 113 113 44
Width: 428
Flags: HW
LayerCount: 2
Fore
SplineSet
390 360 m 1
 390 180 l 1
 390 0 l 2
 390 -106.666992188 390 -133.333007812 390 -240 c 1
 310 -240 l 1
 310 -133.333007812 310 -106.666992188 310 0 c 2
 310 30.333984375 l 1
 280.399414062 10.556640625 245.599609375 0 210 0 c 0
 110.588867188 0 30 80.5888671875 30 180 c 0
 30 279.411132812 110.588867188 360 210 360 c 0
 245.599609375 360 280.399414062 349.443359375 310 329.666015625 c 1
 310 360 l 1
 390 360 l 1
210 280 m 0
 154.771484375 280 110 235.228515625 110 180 c 0
 110 124.771484375 154.771484375 80 210 80 c 0
 265.228515625 80 310 124.771484375 310 180 c 0
 310 235.228515625 265.228515625 280 210 280 c 0
EndSplineSet
Validated: 524289
EndChar

StartChar: r
Encoding: 114 114 45
Width: 269
Flags: HW
LayerCount: 2
Fore
SplineSet
37 360 m 1
 117 360 l 1
 117 338.564453125 l 1
 140.416992188 352.083984375 167.748046875 359.9453125 196.6953125 360 c 0
 196.747070312 360 196.79296875 360 196.844726562 360 c 0
 196.896484375 360 196.948242188 360 197 360 c 2
 197.009765625 360 l 1
 237 360 l 1
 237 354.91796875 l 1
 237 280 l 1
 197 280 l 2
 196.990234375 280 196.981445312 280 196.971679688 280 c 0
 196.9609375 280 196.951171875 280 196.94140625 280 c 0
 152.815429688 279.967773438 117 244.1328125 117 200 c 2
 117 0 l 1
 37 0 l 1
 37 200 l 1
 37 360 l 1
EndSplineSet
Validated: 524289
EndChar

StartChar: t
Encoding: 116 116 46
Width: 300
Flags: HW
LayerCount: 2
Fore
SplineSet
109 420 m 1
 189 440 l 1
 189 360 l 1
 269 360 l 1
 269 280 l 1
 189 280 l 1
 189 0 l 1
 109 0 l 1
 109 280 l 1
 29 280 l 1
 29 360 l 1
 109 360 l 1
 109 420 l 1
EndSplineSet
Validated: 1
EndChar

StartChar: u
Encoding: 117 117 47
Width: 432
Flags: HW
LayerCount: 2
Fore
SplineSet
35 360 m 1
 115 360 l 1
 115 160 l 1
 117.021484375 160 l 1
 126.326171875 114.416015625 166.68359375 80.0009765625 215 80 c 0
 263.31640625 80 303.67578125 114.415039062 312.98046875 160 c 1
 315 160 l 1
 315 360 l 1
 395 360 l 1
 395 160 l 1
 393.884765625 160 l 1
 383.837890625 70.142578125 307.520507812 0 215 0 c 0
 122.479492188 0 46.162109375 70.142578125 36.115234375 160 c 1
 35 160 l 1
 35 360 l 1
EndSplineSet
Validated: 524289
EndChar

StartChar: v
Encoding: 118 118 48
Width: 457
Flags: HW
LayerCount: 2
Fore
SplineSet
23 360 m 1
 110.9921875 360 l 1
 227.896484375 104.775390625 l 1
 344.80078125 360 l 1
 432.79296875 360 l 1
 267.896484375 0 l 1
 187.896484375 0 l 1
 23 360 l 1
EndSplineSet
Validated: 524289
EndChar

StartChar: w
Encoding: 119 119 49
Width: 514
Flags: HW
LayerCount: 2
Fore
SplineSet
25 360 m 1
 107.8203125 360 l 1
 161.4609375 159.8125 l 1
 215.05078125 359.810546875 l 1
 215 360 l 1
 297.921875 360 l 1
 297.87109375 359.810546875 l 1
 351.4609375 159.8125 l 1
 405.1015625 360 l 1
 487.921875 360 l 1
 391.4609375 0 l 1
 311.4609375 0 l 1
 256.4609375 205.263671875 l 1
 201.4609375 0 l 1
 121.4609375 0 l 1
 25 360 l 1
EndSplineSet
Validated: 524289
EndChar

StartChar: x
Encoding: 120 120 50
Width: 354
Flags: HW
LayerCount: 2
Fore
SplineSet
25 360 m 1
 118.86328125 360 l 1
 176.599609375 260 l 1
 234.3359375 360 l 1
 327.564453125 360 l 1
 222.787109375 180 l 1
 326.7109375 0 l 1
 234.3359375 0 l 1
 176.599609375 100 l 1
 118.86328125 0 l 1
 26.48828125 0 l 1
 130.412109375 180 l 1
 25 360 l 1
EndSplineSet
Validated: 524289
EndChar

StartChar: y
Encoding: 121 121 51
Width: 500
Flags: HW
LayerCount: 2
Fore
SplineSet
23 360 m 1
 115.376953125 360 l 1
 250.12890625 126.6015625 l 1
 384.8828125 360 l 1
 477.2578125 360 l 1
 361.787109375 160 246.31640625 -39.9990234375 130.84765625 -240 c 1
 35.84765625 -240 l 1
 203.94140625 46.6015625 l 1
 23 360 l 1
EndSplineSet
Validated: 524289
EndChar

StartChar: z
Encoding: 122 122 52
Width: 386
Flags: HW
LayerCount: 2
Fore
SplineSet
33 360 m 1
 253 360 l 1
 313 360 l 1
 353 360 l 1
 353 333.333007812 353 306.666992188 353 280 c 1
 146.13671875 80 l 1
 353 80 l 1
 353 0 l 1
 33 0 l 1
 33 80 l 1
 233 280 l 1
 33 280 l 1
 33 360 l 1
EndSplineSet
Validated: 524289
EndChar

StartChar: exclam
Encoding: 33 33 53
Width: 155
Flags: HW
LayerCount: 2
Fore
SplineSet
38 640 m 1
 118 640 l 1
 118 120 l 1
 38 120 l 1
 38 640 l 1
118 40 m 0
 118 17.923828125 100.076171875 0 78 0 c 0
 55.923828125 0 38 17.923828125 38 40 c 0
 38 62.076171875 55.923828125 80 78 80 c 0
 100.076171875 80 118 62.076171875 118 40 c 0
EndSplineSet
Validated: 524289
EndChar

StartChar: bracketleft
Encoding: 91 91 54
Width: 314
Flags: HW
LayerCount: 2
Fore
SplineSet
37 640 m 1
 277 640 l 1
 277 560 l 1
 117 560 l 1
 117 80 l 1
 277 80 l 1
 277 0 l 1
 37 0 l 1
 37 640 l 1
EndSplineSet
Validated: 1
EndChar

StartChar: bracketright
Encoding: 93 93 55
Width: 314
Flags: HW
LayerCount: 2
Fore
SplineSet
276 640 m 1
 276 0 l 1
 36 0 l 1
 36 80 l 1
 196 80 l 1
 196 560 l 1
 36 560 l 1
 36 640 l 1
 276 640 l 1
EndSplineSet
Validated: 1
EndChar

StartChar: three
Encoding: 51 51 56
Width: 428
Flags: HW
LayerCount: 2
Fore
SplineSet
214 640 m 0
 313.344726562 640 394 559.344726562 394 460 c 0
 394 403.444335938 367.983398438 353.008789062 327.13671875 320 c 1
 367.983398438 286.991210938 394 236.555664062 394 180 c 0
 394 80.6552734375 313.344726562 0 214 0 c 0
 114.655273438 0 34 80.6552734375 34 180 c 1
 114 180 l 1
 114 124.80859375 158.80859375 80 214 80 c 0
 269.19140625 80 314 124.80859375 314 180 c 0
 314 235.19140625 269.19140625 280 214 280 c 2
 174 280 l 1
 174 360 l 1
 214 360 l 2
 269.19140625 360 314 404.80859375 314 460 c 0
 314 515.19140625 269.19140625 560 214 560 c 0
 158.80859375 560 114 515.19140625 114 460 c 1
 34 460 l 1
 34 559.344726562 114.655273438 640 214 640 c 0
EndSplineSet
Validated: 524289
EndChar

StartChar: five
Encoding: 53 53 57
Width: 428
Flags: HW
LayerCount: 2
Fore
SplineSet
34 640 m 1
 394 640 l 1
 394 560 l 1
 114 560 l 1
 114 329.666015625 l 1
 143.600585938 349.443359375 178.400390625 360 214 360 c 0
 313.411132812 360 394 279.411132812 394 180 c 0
 394 80.5888671875 313.411132812 0 214 0 c 0
 139.870117188 0 75.32421875 45.056640625 47.947265625 110.47265625 c 1
 123.306640625 137.8984375 l 1
 139.391601562 103.225585938 174.409179688 80 214 80 c 0
 269.228515625 80 314 124.771484375 314 180 c 0
 314 235.228515625 269.228515625 280 214 280 c 0
 182.525390625 279.999023438 164 280 114 240 c 1
 34 240 l 1
 34 560 l 1
 34 640 l 1
35.115234375 160 m 1
 42.234375 160 l 1
 35.421875 157.51953125 l 1
 35.318359375 158.345703125 35.2080078125 159.169921875 35.115234375 160 c 1
EndSplineSet
Validated: 524289
EndChar

StartChar: zero
Encoding: 48 48 58
Width: 543
Flags: HW
LayerCount: 2
Fore
SplineSet
273.80859375 640 m 0
 273.840820312 640 273.870117188 640 273.90234375 640 c 0
 273.934570312 640 273.967773438 640 274 640 c 0
 406.459960938 640 514 496.61328125 514 320 c 0
 514 143.387695312 406.459960938 0 274 0 c 0
 141.540039062 0 34 143.387695312 34 320 c 0
 34 496.526367188 141.438476562 639.859375 273.80859375 640 c 0
274 560 m 0
 185.693359375 560 114 452.459960938 114 320 c 0
 114 187.540039062 185.693359375 80 274 80 c 0
 362.306640625 80 434 187.540039062 434 320 c 0
 434 452.459960938 362.306640625 560 274 560 c 0
EndSplineSet
Validated: 524289
EndChar

StartChar: backslash
Encoding: 92 92 59
Width: 517
Flags: HW
LayerCount: 2
Fore
SplineSet
119.375 640 m 1
 488.87890625 0 l 1
 396.50390625 0 l 1
 27 640 l 1
 119.375 640 l 1
EndSplineSet
Validated: 524289
EndChar

StartChar: slash
Encoding: 47 47 60
Width: 517
Flags: HW
LayerCount: 2
Fore
SplineSet
396.50390625 640 m 1
 488.87890625 640 l 1
 119.375 0 l 1
 27 0 l 1
 396.50390625 640 l 1
EndSplineSet
Validated: 524289
EndChar

StartChar: numbersign
Encoding: 35 35 61
Width: 551
Flags: HW
LayerCount: 2
Fore
SplineSet
115 640 m 1
 195 640 l 1
 195 480 l 1
 355 480 l 1
 355 640 l 1
 435 640 l 1
 435 480 l 1
 515 480 l 1
 515 400 l 1
 435 400 l 1
 435 240 l 1
 515 240 l 1
 515 160 l 1
 435 160 l 1
 435 0 l 1
 355 0 l 1
 355 160 l 1
 195 160 l 1
 195 0 l 1
 115 0 l 1
 115 160 l 1
 35 160 l 1
 35 240 l 1
 115 240 l 1
 115 400 l 1
 35 400 l 1
 35 480 l 1
 115 480 l 1
 115 640 l 1
195 400 m 1
 195 240 l 1
 355 240 l 1
 355 400 l 1
 195 400 l 1
EndSplineSet
Validated: 1
EndChar

StartChar: quotedbl
Encoding: 34 34 62
Width: 315
Flags: HW
LayerCount: 2
Fore
SplineSet
38 640 m 1
 118 640 l 1
 118 480 l 1
 38 480 l 1
 38 640 l 1
198 640 m 1
 278 640 l 1
 278 480 l 1
 198 480 l 1
 198 640 l 1
EndSplineSet
Validated: 1
EndChar

StartChar: quotesingle
Encoding: 39 39 63
Width: 155
Flags: HW
LayerCount: 2
Fore
SplineSet
38 640 m 1
 118 640 l 1
 118 480 l 1
 38 480 l 1
 38 640 l 1
EndSplineSet
Validated: 1
EndChar

StartChar: parenleft
Encoding: 40 40 64
Width: 261
Flags: HW
LayerCount: 2
Fore
SplineSet
191 640 m 1
 231 640 l 1
 231 560 l 1
 191 560 l 1
 191 557.978515625 l 1
 151.901367188 549.998046875 121.000976562 519.098632812 113.01953125 480 c 1
 111 480 l 1
 111 160.90625 l 1
 113.01953125 160.90625 l 1
 121.000976562 121.807617188 151.901367188 90.908203125 191 82.927734375 c 1
 191 80 l 1
 231 80 l 1
 231 0 l 1
 191 0 l 1
 191 2.021484375 l 1
 108.071289062 11.29296875 41.900390625 77.1962890625 32.216796875 160 c 1
 31 160 l 1
 31 480 l 1
 32.11328125 480 l 1
 41.4189453125 563.23046875 107.768554688 629.580078125 191 638.884765625 c 1
 191 640 l 1
EndSplineSet
Validated: 524289
EndChar

StartChar: parenright
Encoding: 41 41 65
Width: 261
Flags: HW
LayerCount: 2
Fore
SplineSet
69 640 m 1
 69 638.884765625 l 1
 152.231445312 629.580078125 218.581054688 563.23046875 227.88671875 480 c 1
 229 480 l 1
 229 160 l 1
 227.783203125 160 l 1
 218.099609375 77.1962890625 151.928710938 11.29296875 69 2.021484375 c 1
 69 0 l 1
 29 0 l 1
 29 80 l 1
 69 80 l 1
 69 82.927734375 l 1
 108.098632812 90.908203125 138.999023438 121.807617188 146.98046875 160.90625 c 1
 149 160.90625 l 1
 149 480 l 1
 146.98046875 480 l 1
 138.999023438 519.098632812 108.098632812 549.998046875 69 557.978515625 c 1
 69 560 l 1
 29 560 l 1
 29 640 l 1
 69 640 l 1
EndSplineSet
Validated: 524289
EndChar

StartChar: one
Encoding: 49 49 66
Width: 224
Flags: HW
LayerCount: 2
Fore
SplineSet
109 640 m 1
 189 640 l 1
 189 0 l 1
 109 0 l 1
 109 526.86328125 l 1
 62.13671875 480 l 1
 29 480 l 1
 29 560 l 1
 109 640 l 1
EndSplineSet
Validated: 524289
EndChar

StartChar: two
Encoding: 50 50 67
Width: 429
Flags: HW
LayerCount: 2
Fore
SplineSet
214 640 m 0
 313.411132812 640 394 559.411132812 394 460 c 0
 394 444.62890625 394 430 388.140625 414.451171875 c 0
 369 385 318.91796875 313.7421875 318.91796875 313.7421875 c 1
 136.451171875 80 l 1
 394 80 l 1
 394 0 l 1
 74 0 l 1
 34 0 l 1
 34 31.224609375 l 1
 34 78.767578125 l 1
 234 334.970703125 l 1
 264 373.400390625 l 1
 310.1484375 432.515625 l 2
 312.703125 441.453125 314 450.704101562 314 460 c 0
 314 515.228515625 269.228515625 560 214 560 c 0
 158.771484375 560 114 515.228515625 114 460 c 0
 114 453.282226562 114.677734375 446.58203125 116.021484375 440 c 1
 35.115234375 440 l 1
 34.3720703125 446.640625 34 453.317382812 34 460 c 0
 34 559.411132812 114.588867188 640 214 640 c 0
EndSplineSet
Validated: 524289
EndChar

StartChar: eight
Encoding: 56 56 68
Width: 429
Flags: HW
LayerCount: 2
Fore
SplineSet
215 640 m 0
 314.344726562 640 395 559.344726562 395 460 c 0
 395 403.444335938 368.983398438 353.008789062 328.13671875 320 c 1
 368.983398438 286.991210938 395 236.555664062 395 180 c 0
 395 80.6552734375 314.344726562 0 215 0 c 0
 115.655273438 0 35 80.6552734375 35 180 c 0
 35 236.555664062 61.0166015625 286.991210938 101.86328125 320 c 1
 61.0166015625 353.008789062 35 403.444335938 35 460 c 0
 35 559.344726562 115.655273438 640 215 640 c 0
215 560 m 0
 159.80859375 560 115 515.19140625 115 460 c 0
 115 404.80859375 159.80859375 360 215 360 c 0
 270.19140625 360 315 404.80859375 315 460 c 0
 315 515.19140625 270.19140625 560 215 560 c 0
215 280 m 0
 159.80859375 280 115 235.19140625 115 180 c 0
 115 124.80859375 159.80859375 80 215 80 c 0
 270.19140625 80 315 124.80859375 315 180 c 0
 315 235.19140625 270.19140625 280 215 280 c 0
EndSplineSet
Validated: 524289
EndChar

StartChar: four
Encoding: 52 52 69
Width: 510
Flags: HW
LayerCount: 2
Fore
SplineSet
315 640 m 1
 395 640 l 1
 395 546.666992188 395 453.333007812 395 360 c 1
 475 360 l 1
 475 280 l 1
 395 280 l 1
 395 0 l 1
 315 0 l 1
 315 280 l 1
 75 280 l 1
 35 280 l 1
 35 306.666992188 35 333.333007812 35 360 c 1
 119.84765625 442.990234375 216.333984375 544.220703125 315 640 c 1
315 520 m 1
 155 360 l 1
 315 360 l 1
 315 520 l 1
EndSplineSet
Validated: 524289
EndChar

StartChar: six
Encoding: 54 54 70
Width: 424
Flags: HW
LayerCount: 2
Fore
SplineSet
215.115234375 640 m 0
 293.98828125 640 362.018554688 588.997070312 385.96484375 516.73046875 c 1
 311.3671875 487.04296875 l 1
 299.353515625 529.888671875 260.198242188 560 215.115234375 560 c 0
 167.595703125 560 125.50390625 526.559570312 116 480 c 1
 116 329.666015625 l 1
 145.600585938 349.443359375 180.400390625 360 216 360 c 0
 315.411132812 360 396 279.411132812 396 180 c 0
 396 80.5888671875 315.411132812 0 216 0 c 0
 124.328125 0 46.185546875 68.896484375 36 160 c 1
 36 180 l 1
 36 480 l 1
 46.185546875 571.103515625 123.443359375 640 215.115234375 640 c 0
216 280 m 0
 160.771484375 280 116 235.228515625 116 180 c 0
 116 124.771484375 160.771484375 80 216 80 c 0
 271.228515625 80 316 124.771484375 316 180 c 0
 316 235.228515625 271.228515625 280 216 280 c 0
EndSplineSet
Validated: 524289
EndChar

StartChar: nine
Encoding: 57 57 71
Width: 424
Flags: HW
LayerCount: 2
Fore
SplineSet
207.884765625 0 m 0
 129.01171875 0 60.9814453125 51.0029296875 37.03515625 123.26953125 c 1
 111.6328125 152.95703125 l 1
 123.646484375 110.111328125 162.801757812 80.0009765625 207.884765625 80 c 0
 255.404296875 80 297.49609375 113.440429688 307 160 c 2
 307 310.333984375 l 1
 277.399414062 290.556640625 242.599609375 280 207 280 c 0
 107.588867188 280 27 360.588867188 27 460 c 0
 27 559.411132812 107.588867188 640 207 640 c 0
 298.671875 640 376.814453125 571.103515625 387 480 c 2
 387 460 l 1
 387 160 l 2
 376.814453125 68.896484375 299.556640625 0 207.884765625 0 c 0
207 360 m 0
 262.228515625 360 307 404.771484375 307 460 c 0
 307 515.228515625 262.228515625 560 207 560 c 0
 151.771484375 560 107 515.228515625 107 460 c 0
 107 404.771484375 151.771484375 360 207 360 c 0
EndSplineSet
Validated: 524289
EndChar

StartChar: seven
Encoding: 55 55 72
Width: 428
Flags: HW
LayerCount: 2
Fore
SplineSet
34 640 m 1
 354 640 l 1
 394 640 l 1
 394 549.283203125 l 1
 76.87109375 0 l 1
 34 0 l 1
 34 86.470703125 l 1
 307.8125 560 l 1
 34 560 l 1
 34 640 l 1
EndSplineSet
Validated: 524289
EndChar

StartChar: period
Encoding: 46 46 73
Width: 152
Flags: HW
LayerCount: 2
Fore
SplineSet
115 40 m 0
 115 17.923828125 97.076171875 0 75 0 c 0
 52.923828125 0 35 17.923828125 35 40 c 0
 35 62.076171875 52.923828125 80 75 80 c 0
 97.076171875 80 115 62.076171875 115 40 c 0
EndSplineSet
Validated: 524289
EndChar

StartChar: colon
Encoding: 58 58 74
Width: 152
Flags: HW
LayerCount: 2
Fore
SplineSet
115 40 m 0
 115 17.923828125 97.076171875 0 75 0 c 0
 52.923828125 0 35 17.923828125 35 40 c 0
 35 62.076171875 52.923828125 80 75 80 c 0
 97.076171875 80 115 62.076171875 115 40 c 0
115 320 m 0
 115 297.923828125 97.076171875 280 75 280 c 0
 52.923828125 280 35 297.923828125 35 320 c 0
 35 342.076171875 52.923828125 360 75 360 c 0
 97.076171875 360 115 342.076171875 115 320 c 0
EndSplineSet
Validated: 524289
EndChar

StartChar: hyphen
Encoding: 45 45 75
Width: 395
Flags: HW
LayerCount: 2
Fore
SplineSet
38 280 m 1
 38 360 l 1
 358 360 l 1
 358 280 l 1
 38 280 l 1
EndSplineSet
Validated: 1
EndChar

StartChar: plus
Encoding: 43 43 76
Width: 393
Flags: HW
LayerCount: 2
Fore
SplineSet
156 480 m 1
 236 480 l 1
 236 360 l 1
 356 360 l 1
 356 280 l 1
 236 280 l 1
 236 160 l 1
 156 160 l 1
 156 280 l 1
 36 280 l 1
 36 360 l 1
 156 360 l 1
 156 480 l 1
EndSplineSet
Validated: 1
EndChar

StartChar: asterisk
Encoding: 42 42 77
Width: 382
Flags: HW
LayerCount: 2
Fore
SplineSet
150.564453125 480 m 1
 230.564453125 480 l 1
 230.564453125 389.28125 l 1
 309.12890625 434.640625 l 1
 349.12890625 365.359375 l 1
 270.564453125 320 l 1
 349.12890625 274.640625 l 1
 309.12890625 205.359375 l 1
 230.564453125 250.71875 l 1
 230.564453125 160 l 1
 150.564453125 160 l 1
 150.564453125 250.71875 l 1
 72 205.359375 l 1
 32 274.640625 l 1
 110.564453125 320 l 1
 32 365.359375 l 1
 72 434.640625 l 1
 150.564453125 389.28125 l 1
 150.564453125 480 l 1
EndSplineSet
Validated: 524289
EndChar

StartChar: comma
Encoding: 44 44 78
Width: 160
Flags: HW
LayerCount: 2
Fore
SplineSet
100.079101562 79.97265625 m 0
 121.484375 74.2373046875 134.098632812 52.3876953125 128.36328125 30.982421875 c 2
 107.658203125 -46.291015625 l 2
 101.922851562 -67.6962890625 80.0732421875 -80.310546875 58.66796875 -74.5751953125 c 0
 37.263671875 -68.83984375 24.6484375 -46.990234375 30.3837890625 -25.5859375 c 2
 51.08984375 51.6884765625 l 2
 56.8251953125 73.09375 78.673828125 85.7080078125 100.079101562 79.97265625 c 0
EndSplineSet
Validated: 524321
EndChar

StartChar: semicolon
Encoding: 59 59 79
Width: 166
Flags: HW
LayerCount: 2
Fore
SplineSet
98.0791015625 79.97265625 m 0
 119.484375 74.2373046875 132.098632812 52.3876953125 126.36328125 30.982421875 c 2
 105.658203125 -46.291015625 l 2
 99.9228515625 -67.6962890625 78.0732421875 -80.310546875 56.66796875 -74.5751953125 c 0
 35.263671875 -68.83984375 22.6484375 -46.990234375 28.3837890625 -25.5859375 c 2
 49.08984375 51.6884765625 l 2
 54.8251953125 73.09375 76.673828125 85.7080078125 98.0791015625 79.97265625 c 0
137.87109375 320 m 0
 137.87109375 297.923828125 119.947265625 280 97.87109375 280 c 0
 75.794921875 280 57.87109375 297.923828125 57.87109375 320 c 0
 57.87109375 342.076171875 75.794921875 360 97.87109375 360 c 0
 119.947265625 360 137.87109375 342.076171875 137.87109375 320 c 0
EndSplineSet
Validated: 524321
EndChar

StartChar: less
Encoding: 60 60 80
Width: 496
Flags: HW
LayerCount: 2
Fore
SplineSet
464.13671875 640 m 1
 144.13671875 320 l 1
 464.13671875 0 l 1
 351 0 l 1
 87.568359375 263.431640625 l 1
 71 280 l 1
 31 320 l 1
 71 360 l 1
 87.568359375 376.568359375 l 1
 351 640 l 1
 464.13671875 640 l 1
EndSplineSet
Validated: 524289
EndChar

StartChar: greater
Encoding: 62 62 81
Width: 496
Flags: HW
LayerCount: 2
Fore
SplineSet
31 640 m 1
 144.13671875 640 l 1
 407.568359375 376.568359375 l 1
 424.13671875 360 l 1
 464.13671875 320 l 1
 424.13671875 280 l 1
 407.568359375 263.431640625 l 1
 144.13671875 0 l 1
 31 0 l 1
 351 320 l 1
 31 640 l 1
EndSplineSet
Validated: 524289
EndChar

StartChar: greater_than_or_equals
Encoding: 256 -1 82
Width: 494
Flags: HW
LayerCount: 2
Fore
SplineSet
30.86328125 640 m 1
 144 640 l 1
 407.431640625 376.568359375 l 1
 424 360 l 1
 464 320 l 1
 424 280 l 1
 407.431640625 263.431640625 l 1
 144 0 l 1
 30.86328125 0 l 1
 350.86328125 320 l 1
 30.86328125 640 l 1
464 240 m 1
 464 126.86328125 l 1
 137.13671875 -200 l 1
 24 -200 l 1
 464 240 l 1
EndSplineSet
Validated: 524289
Ligature2: "Ligatures-1" greater equal
EndChar

StartChar: equal
Encoding: 61 61 83
Width: 435
Flags: HW
LayerCount: 2
Fore
SplineSet
38 280 m 1
 398 280 l 1
 398 200 l 1
 38 200 l 1
 38 280 l 1
38 440 m 1
 398 440 l 1
 398 360 l 1
 38 360 l 1
 38 440 l 1
EndSplineSet
Validated: 1
EndChar

StartChar: less_than_or_equals
Encoding: 257 -1 84
Width: 494
Flags: HW
LayerCount: 2
Fore
SplineSet
462.13671875 640 m 1
 142.13671875 320 l 1
 462.13671875 0 l 1
 349 0 l 1
 85.568359375 263.431640625 l 1
 69 280 l 1
 29 320 l 1
 69 360 l 1
 85.568359375 376.568359375 l 1
 349 640 l 1
 462.13671875 640 l 1
29 240 m 1
 469 -200 l 1
 355.86328125 -200 l 1
 29 126.86328125 l 1
 29 240 l 1
EndSplineSet
Validated: 524289
Ligature2: "Ligatures-1" less equal
EndChar

StartChar: NameMe.94
Encoding: 94 94 85
Width: 615
Flags: HW
LayerCount: 2
Fore
SplineSet
307 640 m 1
 363.568359375 583.431640625 l 1
 587 360 l 1
 473.86328125 360 l 1
 307 526.86328125 l 1
 140.13671875 360 l 1
 27 360 l 1
 250.431640625 583.431640625 l 1
 307 640 l 1
EndSplineSet
Validated: 524289
EndChar

StartChar: NameMe.95
Encoding: 95 95 86
Width: 555
Flags: HW
LayerCount: 2
Fore
SplineSet
38 80 m 1
 518 80 l 1
 518 0 l 1
 38 0 l 1
 38 80 l 1
EndSplineSet
Validated: 1
EndChar

StartChar: NameMe.96
Encoding: 96 96 87
Width: 224
Flags: HW
LayerCount: 2
Fore
SplineSet
27 583.431640625 m 1
 83.568359375 640 l 1
 196.706054688 526.86328125 l 1
 140.13671875 470.293945312 l 1
 27 583.431640625 l 1
EndSplineSet
Validated: 524289
EndChar

StartChar: NameMe.63
Encoding: 63 63 88
Width: 409
Flags: HW
LayerCount: 2
Fore
SplineSet
200.287109375 640 m 0
 299.698242188 640 380.287109375 559.411132812 380.287109375 460 c 0
 380.287109375 416.439453125 360.287109375 380 335.826171875 341.556640625 c 2
 260.287109375 210.71875 l 1
 260.287109375 120 l 1
 207.91015625 120 l 1
 180.287109375 120 l 1
 180.287109375 232.154296875 l 1
 196.848632812 261.250976562 212.780273438 292.6640625 231.00390625 320 c 2
 260.287109375 370.71875 l 1
 271.02734375 389.3203125 l 1
 296.869140625 434.078125 l 2
 299.137695312 442.532226562 300.287109375 451.247070312 300.287109375 460 c 0
 300.287109375 515.228515625 255.515625 560 200.287109375 560 c 0
 152.767578125 560 111.810546875 526.559570312 102.306640625 480 c 1
 101.423828125 480 l 1
 26 505.046875 l 1
 46.1904296875 583.438476562 117.227539062 640 200.287109375 640 c 0
180.287109375 40 m 0
 180.287109375 62.091796875 198.1953125 80 220.287109375 80 c 0
 242.37890625 80 260.287109375 62.091796875 260.287109375 40 c 0
 260.287109375 17.908203125 242.37890625 0 220.287109375 0 c 0
 198.1953125 0 180.287109375 17.908203125 180.287109375 40 c 0
EndSplineSet
Validated: 524289
EndChar

StartChar: NameMe.64
Encoding: 64 64 89
Width: 707
Flags: HW
LayerCount: 2
Fore
SplineSet
352.76171875 640 m 0
 352.801757812 640 352.837890625 640 352.87890625 640 c 0
 352.918945312 640 352.959960938 640 353 640 c 0
 529.612304688 640 673 496.612304688 673 320 c 0
 673 253.416015625 652.43359375 191.236328125 617.576171875 140 c 1
 593 140 l 1
 533 140 l 1
 533 139.666015625 l 1
 453 139.666015625 l 1
 453 140 l 1
 453 170 l 1
 424.426757812 150.908203125 389.913085938 139.666015625 353 139.666015625 c 0
 253.655273438 139.666015625 173 220.321289062 173 319.666015625 c 0
 173 419.010742188 253.655273438 499.666015625 353 499.666015625 c 0
 389.913085938 499.666015625 424.426757812 488.423828125 453 469.33203125 c 1
 453 499.666015625 l 1
 512.12109375 499.666015625 l 1
 469.768554688 537.176757812 413.96875 560 353 560 c 0
 352.9140625 560 352.836914062 560 352.750976562 560 c 0
 352.665039062 560 352.578125 560 352.4921875 560 c 0
 220.270507812 559.720703125 113 452.287109375 113 320 c 0
 113 187.540039062 220.540039062 80 353 80 c 2
 613 80 l 1
 613 0 l 1
 353 0 l 2
 176.387695312 0 33 143.387695312 33 320 c 0
 33 496.532226562 176.260742188 639.868164062 352.76171875 640 c 0
533 478.744140625 m 1
 533 319.666015625 l 1
 533 220 l 1
 571.171875 220 l 1
 585.104492188 250.396484375 592.999023438 284.399414062 593 320 c 0
 593 380.786132812 570.310546875 436.438476562 533 478.744140625 c 1
353 419.666015625 m 0
 297.80859375 419.666015625 253 374.857421875 253 319.666015625 c 0
 253 264.474609375 297.80859375 219.666015625 353 219.666015625 c 0
 408.19140625 219.666015625 453 264.474609375 453 319.666015625 c 0
 453 374.857421875 408.19140625 419.666015625 353 419.666015625 c 0
EndSplineSet
Validated: 524289
EndChar

StartChar: NameMe.36
Encoding: 36 36 90
Width: 494
Flags: HW
LayerCount: 2
Fore
SplineSet
206.90234375 680 m 1
 286.90234375 680 l 1
 286.90234375 636.849609375 l 1
 353.359375 632.702148438 412.314453125 608.319335938 452.34765625 571.818359375 c 1
 403.443359375 509.69921875 l 1
 378.622070312 535.028320312 336.202148438 552.831054688 286.90234375 556.693359375 c 1
 286.90234375 351.755859375 l 1
 390.321289062 331.728515625 466.90234375 261.254882812 466.90234375 177.470703125 c 0
 466.901367188 93.6875 390.3203125 23.21484375 286.90234375 3.1875 c 1
 286.90234375 -40 l 1
 206.90234375 -40 l 1
 206.90234375 -1.90234375 l 1
 140.486328125 2.263671875 81.568359375 26.640625 41.5546875 63.123046875 c 1
 90.458984375 125.2421875 l 1
 115.264648438 99.9296875 157.643554688 82.134765625 206.90234375 78.255859375 c 1
 206.90234375 283.205078125 l 1
 103.533203125 303.256835938 27 373.712890625 27 457.470703125 c 0
 27 541.228515625 103.533203125 611.684570312 206.90234375 631.736328125 c 1
 206.90234375 680 l 1
206.90234375 550.1484375 m 1
 148.288085938 535.301757812 107 499.404296875 107 457.470703125 c 0
 107 415.537109375 148.288085938 379.639648438 206.90234375 364.79296875 c 1
 206.90234375 550.1484375 l 1
286.90234375 270.173828125 m 1
 286.90234375 84.767578125 l 1
 345.567382812 99.599609375 386.90234375 135.514648438 386.90234375 177.470703125 c 0
 386.90234375 219.426757812 345.567382812 255.341796875 286.90234375 270.173828125 c 1
EndSplineSet
Validated: 524289
EndChar

StartChar: NameMe.37
Encoding: 37 37 91
Width: 535
Flags: HW
LayerCount: 2
Fore
SplineSet
147 640 m 0
 213.229492188 640 267 586.229492188 267 520 c 0
 267 453.770507812 213.229492188 400 147 400 c 0
 80.7705078125 400 27 453.770507812 27 520 c 0
 27 586.229492188 80.7705078125 640 147 640 c 0
146.923828125 560 m 0
 124.8828125 559.958007812 107 542.05078125 107 520 c 0
 107 497.923828125 124.923828125 480 147 480 c 0
 169.076171875 480 187 497.923828125 187 520 c 0
 187 542.076171875 169.076171875 560 147 560 c 0
 146.987304688 560 146.975585938 560 146.962890625 560 c 0
 146.950195312 560 146.936523438 560 146.923828125 560 c 0
408.4375 640 m 1
 500.8125 640 l 1
 131.30859375 0 l 1
 38.93359375 0 l 1
 408.4375 640 l 1
387.076171875 240 m 0
 453.305664062 240 507.076171875 186.229492188 507.076171875 120 c 0
 507.076171875 53.7705078125 453.305664062 0 387.076171875 0 c 0
 320.846679688 0 267.076171875 53.7705078125 267.076171875 120 c 0
 267.076171875 186.229492188 320.846679688 240 387.076171875 240 c 0
387 160 m 2
 364.958984375 159.958007812 347.076171875 142.05078125 347.076171875 120 c 0
 347.076171875 97.923828125 365 80 387.076171875 80 c 0
 409.15234375 80 427.076171875 97.923828125 427.076171875 120 c 0
 427.076171875 142.076171875 409.15234375 160 387.076171875 160 c 0
 387.063476562 160 387.051757812 160 387.0390625 160 c 0
 387.026367188 160 387.012695312 160 387 160 c 2
EndSplineSet
Validated: 524289
EndChar

StartChar: NameMe.38
Encoding: 38 38 92
Width: 534
Flags: HW
LayerCount: 2
Fore
SplineSet
207 640 m 2
 287 640 l 1
 287 560 l 1
 207 560 l 2
 151.80859375 560 107 515.19140625 107 460 c 0
 107 404.80859375 151.80859375 360 207 360 c 2
 507 360 l 1
 507 280 l 1
 421.1640625 280 l 1
 421.1640625 0 l 1
 347 0 l 1
 207 0 l 2
 107.655273438 0 27 80.6552734375 27 180 c 0
 27 236.555664062 53.0166015625 286.991210938 93.86328125 320 c 1
 53.0166015625 353.008789062 27 403.444335938 27 460 c 0
 27 559.344726562 107.655273438 640 207 640 c 2
207 280 m 2
 151.80859375 280 107 235.19140625 107 180 c 0
 107 124.80859375 151.80859375 80 207 80 c 2
 347 80 l 1
 347 280 l 1
 207 280 l 2
EndSplineSet
Validated: 524289
EndChar

StartChar: NameMe.123
Encoding: 123 123 93
Width: 378
Flags: HW
LayerCount: 2
Fore
SplineSet
301.544921875 637.978515625 m 1
 341.544921875 637.978515625 l 1
 341.544921875 557.978515625 l 1
 301.544921875 557.978515625 l 1
 301.544921875 555.95703125 l 1
 263.008789062 548.090820312 232.662109375 518.365234375 224 480 c 1
 224 400 l 1
 137.13671875 320 l 1
 224 240 l 1
 224 160 l 1
 221.544921875 160 l 1
 221.544921875 158.884765625 l 1
 223.564453125 158.884765625 l 1
 231.581054688 119.61328125 262.272460938 88.921875 301.544921875 80.90625 c 1
 301.544921875 77.978515625 l 1
 341.544921875 77.978515625 l 1
 341.544921875 -2.021484375 l 1
 301.544921875 -2.021484375 l 1
 301.544921875 0 l 1
 218.309570312 9.3056640625 152.490234375 74.791015625 142.76171875 157.978515625 c 1
 141.544921875 157.978515625 l 1
 141.544921875 160 l 1
 144 160 l 1
 144 200 l 1
 24 320 l 1
 80.568359375 376.568359375 l 1
 144 440 l 1
 144 480 l 1
 142.896484375 480 l 1
 153.091796875 562.708007812 218.7265625 627.604492188 301.544921875 636.86328125 c 1
 301.544921875 637.978515625 l 1
EndSplineSet
Validated: 524289
EndChar

StartChar: NameMe.124
Encoding: 124 124 94
Width: 155
Flags: HW
LayerCount: 2
Fore
SplineSet
38 680 m 1
 118 680 l 1
 118 -40 l 1
 38 -40 l 1
 38 680 l 1
EndSplineSet
Validated: 1
EndChar

StartChar: NameMe.125
Encoding: 125 125 95
Width: 378
Flags: HW
LayerCount: 2
Fore
SplineSet
75 637.978515625 m 1
 75 636.86328125 l 1
 157.818359375 627.604492188 223.453125 562.708007812 233.6484375 480 c 1
 232.544921875 480 l 1
 232.544921875 440 l 1
 295.9765625 376.568359375 l 1
 352.544921875 320 l 1
 232.544921875 200 l 1
 232.544921875 160 l 1
 235 160 l 1
 235 157.978515625 l 1
 233.783203125 157.978515625 l 1
 224.0546875 74.791015625 158.235351562 9.3056640625 75 0 c 1
 75 -2.021484375 l 1
 35 -2.021484375 l 1
 35 77.978515625 l 1
 75 77.978515625 l 1
 75 80.90625 l 1
 114.272460938 88.921875 144.963867188 119.61328125 152.98046875 158.884765625 c 1
 155 158.884765625 l 1
 155 160 l 1
 152.544921875 160 l 1
 152.544921875 240 l 1
 239.408203125 320 l 1
 152.544921875 400 l 1
 152.544921875 480 l 2
 143.8828125 518.365234375 113.536132812 548.090820312 75 555.95703125 c 1
 75 557.978515625 l 1
 35 557.978515625 l 1
 35 637.978515625 l 1
 75 637.978515625 l 1
EndSplineSet
Validated: 524289
EndChar

StartChar: NameMe.126
Encoding: 126 126 96
Width: 384
Flags: HW
LayerCount: 2
Fore
SplineSet
134 640 m 0
 177.86328125 639.999023438 216.60546875 611.4140625 229.546875 569.50390625 c 2
 229.58203125 569.39453125 l 2
 230.532226562 566.306640625 231.33203125 563.174804688 231.978515625 560.009765625 c 0
 235.46875 553.5390625 242.227539062 549.504882812 249.580078125 549.50390625 c 0
 260.625976562 549.50390625 269.580078125 558.458007812 269.580078125 569.50390625 c 0
 269.580078125 571.573242188 269.2578125 573.62890625 268.626953125 575.599609375 c 1
 344.822265625 599.982421875 l 1
 347.975585938 590.129882812 349.580078125 579.848632812 349.580078125 569.50390625 c 0
 349.580078125 514.275390625 304.80859375 469.50390625 249.580078125 469.50390625 c 0
 205.716796875 469.504882812 166.974609375 498.08984375 154.033203125 540 c 2
 153.998046875 540.109375 l 2
 153.047851562 543.197265625 152.248046875 546.329101562 151.6015625 549.494140625 c 0
 148.111328125 555.96484375 141.352539062 560 134 560 c 0
 122.954101562 560 114 551.045898438 114 540 c 0
 114.000976562 537.930664062 114.322265625 535.875 114.953125 533.904296875 c 1
 38.7578125 509.521484375 l 1
 35.60546875 519.374023438 34 529.655273438 34 540 c 0
 34 595.228515625 78.771484375 640 134 640 c 0
EndSplineSet
Validated: 524289
EndChar

StartChar: Acircumflex
Encoding: 128 194 97
Width: 710
Flags: HW
LayerCount: 2
Fore
SplineSet
305.375 640 m 1
 398.625 640 l 1
 682 0 l 1
 592 0 l 1
 466.6015625 280 l 1
 237.3984375 280 l 1
 112 0 l 1
 27 0 l 1
 120.444335938 210.620117188 229.193359375 426.630859375 305.375 640 c 1
352 535.888671875 m 1
 273.2265625 360 l 1
 430.7734375 360 l 1
 352 535.888671875 l 1
352 800 m 1
 525.205078125 700 l 1
 485.205078125 630.71875 l 1
 352 707.625 l 1
 218.794921875 630.71875 l 1
 178.794921875 700 l 1
 352 800 l 1
EndSplineSet
Validated: 524289
EndChar

StartChar: acircumflex
Encoding: 129 226 98
Width: 428
Flags: HW
LayerCount: 2
Fore
SplineSet
208 360 m 0
 244.913085938 360 279.426757812 348.7578125 308 329.666015625 c 1
 308 360 l 1
 388 360 l 1
 388 180 l 1
 388 0 l 1
 308 0 l 1
 308 30.333984375 l 1
 279.426757812 11.2421875 244.913085938 0 208 0 c 0
 108.655273438 0 28 80.6552734375 28 180 c 0
 28 279.344726562 108.655273438 360 208 360 c 0
208 280 m 0
 152.80859375 280 108 235.19140625 108 180 c 0
 108 124.80859375 152.80859375 80 208 80 c 0
 263.19140625 80 308 124.80859375 308 180 c 0
 308 235.19140625 263.19140625 280 208 280 c 0
228 560 m 1
 401.205078125 460 l 1
 361.205078125 390.71875 l 1
 228 467.625 l 1
 94.794921875 390.71875 l 1
 54.794921875 460 l 1
 228 560 l 1
EndSplineSet
Validated: 524289
EndChar

StartChar: abreve
Encoding: 131 259 99
Width: 427
Flags: HW
LayerCount: 2
Fore
SplineSet
211 360 m 0
 247.913085938 360 282.426757812 348.7578125 311 329.666015625 c 1
 311 360 l 1
 391 360 l 1
 391 180 l 1
 391 0 l 1
 311 0 l 1
 311 30.333984375 l 1
 282.426757812 11.2421875 247.913085938 0 211 0 c 0
 111.655273438 0 31 80.6552734375 31 180 c 0
 31 279.344726562 111.655273438 360 211 360 c 0
211 280 m 0
 155.80859375 280 111 235.19140625 111 180 c 0
 111 124.80859375 155.80859375 80 211 80 c 0
 266.19140625 80 311 124.80859375 311 180 c 0
 311 235.19140625 266.19140625 280 211 280 c 0
120.5625 537.328125 m 1
 136.567382812 503.407226562 171.034179688 480 211 480 c 0
 250.965820312 480 285.432617188 503.407226562 301.4375 537.328125 c 1
 371.05859375 497.65234375 l 1
 341.180664062 439.580078125 280.750976562 400 211 400 c 0
 141.249023438 400 80.818359375 439.580078125 50.94140625 497.65234375 c 1
 120.5625 537.328125 l 1
EndSplineSet
EndChar

StartChar: Abreve
Encoding: 130 258 100
Width: 710
Flags: HW
LayerCount: 2
Fore
SplineSet
305.375 640 m 1
 398.625 640 l 1
 682 0 l 1
 592 0 l 1
 466.6015625 280 l 1
 237.3984375 280 l 1
 112 0 l 1
 27 0 l 1
 120.444335938 210.620117188 229.193359375 426.630859375 305.375 640 c 1
352 535.888671875 m 1
 273.2265625 360 l 1
 430.7734375 360 l 1
 352 535.888671875 l 1
271.125 815.581054688 m 1
 287.129882812 781.66015625 321.596679688 758.252929688 361.5625 758.252929688 c 0
 401.528320312 758.252929688 435.995117188 781.66015625 452 815.581054688 c 1
 521.62109375 775.905273438 l 1
 491.743164062 717.83203125 431.313476562 678.252929688 361.5625 678.252929688 c 0
 291.811523438 678.252929688 231.380859375 717.83203125 201.50390625 775.905273438 c 1
 271.125 815.581054688 l 1
EndSplineSet
EndChar

StartChar: uni1EA4
Encoding: 132 7844 101
Width: 716
Flags: HW
LayerCount: 2
Fore
SplineSet
308.375 640 m 1
 401.625 640 l 1
 685 0 l 1
 595 0 l 1
 469.6015625 280 l 1
 240.3984375 280 l 1
 115 0 l 1
 30 0 l 1
 123.444335938 210.620117188 232.193359375 426.630859375 308.375 640 c 1
355 535.888671875 m 1
 276.2265625 360 l 1
 433.7734375 360 l 1
 355 535.888671875 l 1
355 800 m 1
 528.205078125 700 l 1
 488.205078125 630.71875 l 1
 355 707.625 l 1
 221.794921875 630.71875 l 1
 181.794921875 700 l 1
 355 800 l 1
504.282226562 760 m 1
 435 800 l 1
 515 938.564453125 l 1
 584.282226562 898.564453125 l 1
 504.282226562 760 l 1
EndSplineSet
EndChar

StartChar: uni1EA6
Encoding: 134 7846 102
Width: 716
Flags: HW
LayerCount: 2
Fore
SplineSet
308.375 640 m 1
 401.625 640 l 1
 685 0 l 1
 595 0 l 1
 469.6015625 280 l 1
 240.3984375 280 l 1
 115 0 l 1
 30 0 l 1
 123.444335938 210.620117188 232.193359375 426.630859375 308.375 640 c 1
355 535.888671875 m 1
 276.2265625 360 l 1
 433.7734375 360 l 1
 355 535.888671875 l 1
355 800 m 1
 528.205078125 700 l 1
 488.205078125 630.71875 l 1
 355 707.625 l 1
 221.794921875 630.71875 l 1
 181.794921875 700 l 1
 355 800 l 1
235 760 m 1
 155 898.564453125 l 1
 224.282226562 938.564453125 l 1
 304.282226562 800 l 1
 235 760 l 1
EndSplineSet
EndChar
